<svg xmlns="http://www.w3.org/2000/svg" xmlns:xlink="http://www.w3.org/1999/xlink" width="634.595" height="452.082" viewBox="0 0 634.595 452.082"><defs><clipPath id="a"><path d="M488.843,248.479l-12.866-35.048c.962-3.723,1.792-7.484,2.414-11.306,4.259-26.2-3.454-57.235-26.419-69.205-9.707-5.059-20.659-6.042-31.706-6.681l-5.928-16.457-32.976,8.8c-21.272-12-28.115-39.727-42.508-59.926-18.44-25.878-51.864-39.355-82.4-33.228S199.8,56.972,192.086,88.1c-3.514,14.172-3.448,29-5.394,43.488a111.369,111.369,0,0,1-2.051,11.157l-20.822-76.89L108.872,30.467l-8.745,55.41,46.044,97.409c-14.555,4.085-30.687,5.358-44.238,12.3-30.978,15.861-33.666,52.84-27.177,83.732,7.479,35.6,13.07,69.591,31.5,101.427a197.53,197.53,0,0,0,39.658,48.88c41.5,36.788,99.231,53.8,152.991,43.413,45.563-8.8,87.272-37.551,112.543-77.493l27.3-14.746A108.056,108.056,0,0,0,488.843,248.479Z" fill="none"/></clipPath></defs><g transform="translate(-57.231 -23.959)"><path d="M359.29,318.42c-18.738-5.52-37.768,6.808-52.593,19.528s-30.75,27.36-50.284,27.433c-19.752.073-35.885-14.759-50.89-27.6s-34.4-25.24-53.246-19.332c-7.015,2.2-13.076,6.772-20.024,9.171-14.334,4.949-30.605-.19-42.609-9.458a78.008,78.008,0,0,1-8.316-7.477c5.379,24.29,11.987,47.706,24.928,70.059a197.552,197.552,0,0,0,39.658,48.88c41.5,36.788,99.231,53.8,152.99,43.413S401.066,424.5,423.422,372.958c.9-2.069,1.746-4.155,2.565-6.252a124.235,124.235,0,0,1-34.9-23.551C381.307,333.729,372.319,322.258,359.29,318.42Z" fill="#d1f4f5"/><path d="M478.391,202.125c4.259-26.2-3.454-57.235-26.419-69.205-21.509-11.211-49.134-2.409-70.355-14.191-21.477-11.924-28.311-39.8-42.763-60.077-18.44-25.878-51.864-39.355-82.4-33.228S199.8,56.972,192.086,88.1c-3.514,14.171-3.448,29-5.394,43.487s-6.366,29.447-16.79,39.353c-17.853,16.965-46.233,13.516-67.969,24.645-30.978,15.861-33.666,52.84-27.177,83.732,2.228,10.6,4.29,21.064,6.572,31.368a78.008,78.008,0,0,0,8.316,7.477c12,9.268,28.275,14.407,42.609,9.458,6.948-2.4,13.009-6.973,20.024-9.171,18.847-5.908,38.24,6.487,53.246,19.332s31.138,27.676,50.89,27.6c19.534-.073,35.46-14.712,50.284-27.433S340.552,312.9,359.29,318.42c13.029,3.838,22.017,15.309,31.8,24.735a124.235,124.235,0,0,0,34.9,23.551c11.308-28.95,15.672-60.474,26.075-89.857C460.9,251.9,474.131,228.323,478.391,202.125Z" fill="#e7faf9"/><path d="M168.333,108.259A47.107,47.107,0,0,1,152.375,139.4c-10.354,8.936-24,12.847-37.175,16.514l-21.453,5.97c-4,1.113-8.092,2.236-12.23,1.929-7.205-.533-13.513-5.413-17.59-11.378-8.556-12.516-8.45-29.622-2.3-43.482S79.2,84.16,91.825,75.765c9.8-6.514,20.723-11.8,32.418-13.085,11.316-1.244,25.361,1.757,33.247,10.645C165.518,82.373,169.384,96.413,168.333,108.259Z" fill="#e7faf9"/><g clip-path="url(#a)"><path d="M178.709,398.339l-2.943,4.855a48.742,48.742,0,0,0-7.057,25.261v39.884l82.953,10,70.547-6-17.5-59Z" fill="#56438c"/><path d="M194.537,430.227l25.127,4.726a137.989,137.989,0,0,0,56.993-1.26l16.852-3.948a20.993,20.993,0,0,0,13.207-9.638l-2.007-6.768-126-15-2.943,4.855A48.81,48.81,0,0,0,171.8,411.4l.362.847A30.447,30.447,0,0,0,194.537,430.227Z" fill="#422c4f"/><path d="M253.5,473.89a78.284,78.284,0,0,0-11.623-10.464A95.888,95.888,0,0,0,209.9,447.991a78.363,78.363,0,0,0-15.423-2.59c8.613,3.371,19.618,7.622,30.223,12.774C235.329,463.272,245.5,469.243,253.5,473.89Z" fill="#422c4f"/><path d="M299,442.669a50.326,50.326,0,0,0-11.66,2.852A60.129,60.129,0,0,0,264.6,460.568a50.356,50.356,0,0,0-7.182,9.619A139.045,139.045,0,0,1,299,442.669Z" fill="#422c4f"/><path d="M256.464,223.664l44.341,6.5,56.738,20.927-3.75,49.417-23.333-5.667-20.092,59.494a45.65,45.65,0,0,0,1.266,32.529h0a28.818,28.818,0,0,1-1.894,26.312l-2.306,3.785a12.991,12.991,0,0,1-8.773,6.026c-21.7,3.944-63.358,8.009-103.164-2.179a36.838,36.838,0,0,1-23.147-17.833h0a36.705,36.705,0,0,1-3.478-26.648c4.474-17.918,12.684-48.538,20.588-66.153l-33.917-18.083L179.6,254.445a52.8,52.8,0,0,1,35.453-23.588l41.413-7.193" fill="#6c6fc3"/><path d="M353.793,300.505l3.75-49.416L300.8,230.162l-44.155-6.471a376.932,376.932,0,0,0,42.664,97.664,164.282,164.282,0,0,0,15.064,21.1l16.082-47.62Z" fill="#56438c"/><path d="M215.473,334.277a11.958,11.958,0,1,0,10.373-4.365l-9.031-33.582-38.293,8.011,10.938,5.831c-7.9,17.615-16.114,48.235-20.588,66.153h0l39.005-54.9Z" fill="#56438c"/><path d="M286.575,262.223a35.781,35.781,0,0,1-13.188-.06,30.519,30.519,0,0,1-22.2-16.96,35.768,35.768,0,0,1-3.528-12.708,25.309,25.309,0,0,0,.855,13.81,27.461,27.461,0,0,0,24.516,18.726A25.308,25.308,0,0,0,286.575,262.223Z" fill="#56438c"/><path d="M319.209,311.042c-5.716-.4-12.178-.962-18.955-2.005a159.143,159.143,0,0,1-40.822-11.826c-6.285-2.741-12.045-5.722-17.091-8.437a72.887,72.887,0,0,0,15.212,12.063A86.271,86.271,0,0,0,299.9,313.106,72.947,72.947,0,0,0,319.209,311.042Z" fill="#56438c"/><path d="M305.472,337.037c-6.425,3.469-13.914,7.242-22.124,10.708a211.909,211.909,0,0,1-53.414,14.865c-8.821,1.274-17.182,1.912-24.475,2.261a132.973,132.973,0,0,0,24.759.295,147.284,147.284,0,0,0,54.207-15.085A132.923,132.923,0,0,0,305.472,337.037Z" fill="#56438c"/><path d="M280.77,344.727c-7.386.317-16.806.776-26.226.469-9.422-.26-18.8-1.284-26.151-2.044a74.316,74.316,0,0,0,52.377,1.575Z" fill="#56438c"/><path d="M189.46,310.172,159.554,294.2l-21.376,35.657Z" fill="#eba588"/><path d="M159.554,294.2l29.906,15.973-23.929,9.185L157.278,298Z" fill="#422c4f"/><path d="M195.912,289.946l-1.88-11.653h0l-52.878,48.233a21.864,21.864,0,0,0-.091,32.225h0a21.865,21.865,0,0,0,32.827-3.658l30.624-44.414-.544-.783A48.429,48.429,0,0,1,195.912,289.946Z" fill="#f0bf9c"/><path d="M195.627,276.839l-1.6,1.454h0l1.88,11.653a48.429,48.429,0,0,0,8.058,19.95l.544.783,8.279-12.007Z" fill="#eba588"/><path d="M216.815,296.33l1.353,2.421c2.742-3.677,8.27-6.538,11.007-7.212h0a21.331,21.331,0,0,0-8.162,1.833A13.016,13.016,0,0,0,216.815,296.33Z" fill="#a59b95"/><path d="M214.793,292.714l2.022,3.616a13.016,13.016,0,0,1,4.2-2.958,21.331,21.331,0,0,1,8.162-1.833l-2.549-6.867C218.793,286.964,215.543,291.526,214.793,292.714Z" fill="#d4cfbe"/><path d="M218.168,298.751l4.039,7.225a11.739,11.739,0,0,1,4.159-2.853,27.283,27.283,0,0,1,6.489-1.669l-3.68-9.915C226.438,292.213,220.91,295.074,218.168,298.751Z" fill="#d4cfbe"/><path d="M222.207,305.976l1.322,2.364a20.62,20.62,0,0,1,9.326-6.886h0a27.283,27.283,0,0,0-6.489,1.669A11.739,11.739,0,0,0,222.207,305.976Z" fill="#a59b95"/><path d="M214.793,292.714c.75-1.188,4-5.75,11.833-8.042a20.287,20.287,0,0,0-15.278,7.364l-.388.469,3.956,6.7a9.707,9.707,0,0,1,1.9-2.88Z" fill="#a59b95"/><path d="M216.815,296.33a9.707,9.707,0,0,0-1.9,2.88l1.71,2.9a7.836,7.836,0,0,1,1.542-3.357Z" fill="#a59b95"/><path d="M222.074,311.34l5.067,8.589,2.013-1.527-5.625-10.062A9.479,9.479,0,0,0,222.074,311.34Z" fill="#a59b95"/><path d="M232.855,301.454a20.62,20.62,0,0,0-9.326,6.886l5.625,10.062,7.8-5.914Z" fill="#d4cfbe"/><path d="M222.207,305.976a10,10,0,0,0-1.758,2.61l1.625,2.754a9.479,9.479,0,0,1,1.455-3Z" fill="#a59b95"/><path d="M218.168,298.751a7.836,7.836,0,0,0-1.542,3.357l3.823,6.478a10,10,0,0,1,1.758-2.61Z" fill="#a59b95"/><path d="M238.4,329.857a12.646,12.646,0,0,1-12.646-12.646c0-.057.008-.112.009-.17a12.638,12.638,0,1,0,23.474,6.663A12.625,12.625,0,0,1,238.4,329.857Z" fill="#d4cfbe"/><path d="M238.4,329.857a12.625,12.625,0,0,0,10.837-6.153c0-.057.008-.112.008-.17a12.636,12.636,0,0,0-23.482-6.493c0,.058-.009.113-.009.17A12.646,12.646,0,0,0,238.4,329.857Z" fill="#e4e4e0"/><path d="M243.883,317.818c-.317,1.907-3.43,2.98-6.954,2.4s-6.126-2.6-5.81-4.511,3.43-2.979,6.954-2.395S244.2,315.911,243.883,317.818Z" fill="#fff"/><path d="M117.056,47.459l84.036,194.451,10.289-3.874L146.96,78.672Z" fill="#938985"/><path d="M117.056,47.459l-.25-.261-3.387,41.14,76.943,157.612,10.73-4.04Z" fill="#a59b95"/><path d="M116.805,47.2,108.872,89.06l81.489,156.891L113.418,88.339Z" fill="#fff"/><path d="M146.96,78.672l64.421,159.364L149.514,77.33,117.033,47.409l.022.051Z" fill="#d4cfbe"/><path d="M217.657,211.764l-4.358,6.75a27.742,27.742,0,0,1-10.535,21.428,32.609,32.609,0,0,1-23.905,6.4,35.876,35.876,0,0,1-8.352-2.113l2.161-3.263-11.875-10-8.979,5.208-4.358,6.75a50.527,50.527,0,0,0,29.911,15.324,45.641,45.641,0,0,0,5.672.354,43.821,43.821,0,0,0,27.183-9.258c9.557-7.582,19.551-25.9,19.434-37.7Z" fill="#a59b95"/><path d="M187.4,251.85a45.669,45.669,0,0,1-5.673-.354,50.532,50.532,0,0,1-29.91-15.323l8.652-8.316a38.505,38.505,0,0,0,22.751,11.733,32.606,32.606,0,0,0,23.9-6.4,27.74,27.74,0,0,0,10.536-21.428l12-.119a39.436,39.436,0,0,1-15.077,30.947A43.816,43.816,0,0,1,187.4,251.85Z" fill="#d4cfbe"/><path d="M222.555,246.7h0a5.651,5.651,0,0,1,8.032,2.737l4.088,9.861a5.31,5.31,0,0,1-2.669,6.851h0a5.312,5.312,0,0,1-7-2.476l-4.706-9.581A5.65,5.65,0,0,1,222.555,246.7Z" fill="#eba588"/><path d="M190.311,252.869l10.48-8.435a10.091,10.091,0,0,1,11.547-.775l6.175,3.732a10,10,0,0,1,4.172,5l10.9,28.621a6,6,0,0,1-.877,5.828l-3.537,4.7-2.549-6.867h0a20.287,20.287,0,0,0-15.278,7.364l-.388.47,3.958,6.708-7.14-1.587a13,13,0,0,1-9.508-8.128l-10.425-27.568A8,8,0,0,1,190.311,252.869Z" fill="#f0bf9c"/><path d="M232.314,277.664l-12.525-3.495a5.292,5.292,0,0,0-5.161,1.351l-6.751,6.736,4.973-7.6a7.287,7.287,0,0,1,9.606-2.4Z" fill="#eba588"/><path d="M229.658,270.692l-12.666-6.244a5.977,5.977,0,0,0-7.552,1.951l-4.647,6.69,3.228-7.372a7.1,7.1,0,0,1,10.654-2.919Z" fill="#eba588"/><path d="M225.3,259.253l-9.691-6.137a6.265,6.265,0,0,0-8.168,1.287l-4.731,5.686,3.935-7.282a5.752,5.752,0,0,1,8.707-1.713Z" fill="#eba588"/><path d="M275.041,229.8a25.95,25.95,0,0,0,24.727,4.1l3.858-13.889-39.5-8.649-.72,1.158C266.022,219.132,269.5,225.448,275.041,229.8Z" fill="#422c4f"/><path d="M291.549,235.375a26.365,26.365,0,0,1-16.508-5.578c-5.537-4.349-9.019-10.665-11.635-17.282l-6.942,11.149a19.249,19.249,0,0,0-1.115,18.286h0a23.266,23.266,0,0,0,23.728,13.521,22.919,22.919,0,0,0,19.313-16.612l1.378-4.964A26.123,26.123,0,0,1,291.549,235.375Z" fill="#f0bf9c"/><path d="M250.043,201.589l-17.951-37.8a14.843,14.843,0,0,1,8.023-20.18c16.374-6.44,30.963-21.319,43.306-33.667a20.145,20.145,0,0,1,4.708-3.9,6.254,6.254,0,0,1,5.878-.229c2.033,1.164,2.873,3.77,2.622,6.1a18.3,18.3,0,0,1-2.488,6.523,27.959,27.959,0,0,0,7.416-4.052c2.457-2.1,5.018-4.244,8.371-4.693a6.649,6.649,0,0,1,4.009.653c3.914,2.092,3.648,7.068,2.41,10.933a35.266,35.266,0,0,1-14.071,18.538l-37.733,10.022,3,19.25-9.44,9.75-.345,22.75Z" fill="#6a3649"/><path d="M324.543,183.314l-6.25-25.1a35.553,35.553,0,0,0-15.8-22.181,100.678,100.678,0,0,0-42.307,11.613c1.66,5.158,3.206,10.832,2.395,16.19a17.857,17.857,0,0,1-8.042,12.276l-.549,19.06,1.046,4.2A35.667,35.667,0,0,0,297.822,226.1h0A35.667,35.667,0,0,0,324.543,183.314Z" fill="#f0bf9c"/><path d="M278.5,222.511a42.92,42.92,0,0,1-25.629-12.25l2.119-2.123a39.913,39.913,0,0,0,23.831,11.391Z" fill="#c7d2d7"/><path d="M267.828,200.9c-6.685-3.043-13.784-3.541-22.369-3.874l.116-3c7.014.273,15.743.612,23.5,4.142Z" fill="#c7d2d7"/><path d="M275.424,215.877a161.485,161.485,0,0,1-5.03-16.847c6.225-2.036,11.187-6.745,14.689-10.068,3.956-3.755,8.878-8.427,14.32-9.064a12.594,12.594,0,0,1,1.464-.083,34.1,34.1,0,0,1,8.644,1.614l1.2.326a36.781,36.781,0,0,0,9.393,1.507q.717,0,1.414-.048a12.619,12.619,0,0,0,3.886-.951L324.6,178.6c-4.141,1.332-8.643.417-12.844-.71s-8.493-2.473-12.813-1.967c-6.562.768-11.817,5.587-16.608,10.135s-10.133,9.309-16.712,9.911a161.053,161.053,0,0,0,6.05,21.28,17.3,17.3,0,0,0,19.2,11.192C281.941,226.117,277.042,220.381,275.424,215.877Z" fill="#fff"/><path d="M325.408,182.263a12.619,12.619,0,0,1-3.886.951q-.7.048-1.414.048a36.781,36.781,0,0,1-9.393-1.507l-1.2-.326a34.1,34.1,0,0,0-8.644-1.614,12.594,12.594,0,0,0-1.464.083c-5.442.637-10.364,5.309-14.32,9.064-3.5,3.323-8.464,8.032-14.689,10.068a161.485,161.485,0,0,0,5.03,16.847c1.618,4.5,6.517,10.24,15.442,12.566a17.225,17.225,0,0,0,2.258-.526l12.26-3.836a31.258,31.258,0,0,0,21.181-36.611Z" fill="#81d3cf"/><path d="M274.229,159.737a13.349,13.349,0,0,0-8.133,9.041l20.207-7.585A13.35,13.35,0,0,0,274.229,159.737Z" fill="#6a3649"/><path d="M310.527,153.318c3.445.108,6.429,2.408,8.261,5.868l-16.874-.53C303.96,155.318,307.081,153.21,310.527,153.318Z" fill="#6a3649"/><path d="M285.21,174.381a3.042,3.042,0,1,1-3.042-3.042A3.042,3.042,0,0,1,285.21,174.381Z" fill="#422c4f"/><path d="M314.707,168.185a2.514,2.514,0,1,1-2.6-2.925A2.8,2.8,0,0,1,314.707,168.185Z" fill="#422c4f"/><circle cx="12" cy="12" r="12" transform="translate(234.103 192.445)" fill="#f0bf9c"/><circle cx="6.912" cy="6.912" r="6.912" transform="translate(239.19 197.532)" fill="#eba588"/><path d="M234.053,165.156a16.208,16.208,0,0,1,9.932-20.733,57.8,57.8,0,0,0,14.986-8.119c9.1-6.788,16.529-15.54,23.772-24.286a28.684,28.684,0,0,1,6.247-6.151c.246-.159.5-.3.764-.444a7.9,7.9,0,0,0-1.625.622,20.145,20.145,0,0,0-4.708,3.9c-12.343,12.348-26.932,27.227-43.306,33.667a14.843,14.843,0,0,0-8.023,20.18l6.1,12.853h0Z" fill="#8e5a61"/><path d="M321.723,233.339l-9.4-.771a7.447,7.447,0,0,0-7.865,5.751l-4.689,20.353,2.818.313a11.551,11.551,0,0,0,12.636-9.394l.988-5.38Z" fill="#e78882"/><path d="M313.278,251.256l-3.039-6.123a5.529,5.529,0,0,1,1.422-6.713l8.582-7.118a13.773,13.773,0,0,1,11.722-2.856l18.453,4.018,11.125,34.875-17.964,16.222a8.992,8.992,0,0,1-6.246,2.316l-6.237-.151a7.024,7.024,0,0,1-6.31-4.309l-1.62-3.869-1.279-.267a6.192,6.192,0,0,1-4.881-5.3l-.8-6.4h0a5.921,5.921,0,0,1-5.119-3.75L310,259.054a5.919,5.919,0,0,1,2.161-7.033Z" fill="#eba588"/><path d="M313.278,251.256l16.89-13.355-5.491,2.548a24.334,24.334,0,0,0-10.472,9.3Z" fill="#e78882"/><path d="M316.21,265.589l23.666-5.417-5.359,2.7a28.623,28.623,0,0,1-15.242,2.968Z" fill="#e78882"/><path d="M323.166,277.548h16.71l-2.78.775a21.658,21.658,0,0,1-13.636-.662Z" fill="#e78882"/><path d="M342.687,286.08c14.251,39.155,42.79,69.391,73.94,78.338l23.7,6.807,15.515-5.647L451.732,354.3l2.37-3.517c18.111-26.877,20.537-68.383,6.286-107.538l-33.879-93.081L308.808,193Z" fill="#852d70"/><path d="M392.118,126.324l-20.628,7.508-15.515,5.647-36.142,13.155c6.452,17.728,1.516,35.8-11.025,40.364l117.7-42.839C413.968,154.723,398.571,144.052,392.118,126.324Z" fill="#ba3770"/><path d="M407.633,120.677l-72.286,26.31c6.453,17.728,1.517,35.8-11.024,40.364L358.2,280.433c14.251,39.155,42.789,69.391,73.939,78.338l23.7,6.807,13.778-20.447c18.111-26.877,20.537-68.383,6.286-107.538l-33.879-93.081C429.483,149.076,414.085,138.4,407.633,120.677Z" fill="#df4268"/><path d="M458.783,243.824l-30.771-84.542c-12.4-.6-24.652-8.815-32.593-22.042L348.93,154.161c2.42,15.237-1.686,29.409-10.8,37.836l30.77,84.542c12.895,35.427,38.951,63.409,66.384,71.287l11.679,3.356,6.789-10.078C469.7,317.436,471.677,279.252,458.783,243.824Z" fill="#ba3770"/><path d="M401.839,134.9l-6.42,2.336c7.941,13.227,20.2,21.445,32.593,22.042l6.42-2.336C422.035,156.348,409.779,148.131,401.839,134.9Z" fill="#852d70"/><path d="M458.783,243.824c12.894,35.428,10.92,73.612-5.03,97.28l-6.789,10.078,4.06,1.166,9.149-13.58c15.95-23.669,17.924-61.853,5.03-97.28l-30.771-84.542-6.42,2.336Z" fill="#852d70"/><path d="M433.543,216.8l-18.365,6.684-8.958-24.613-21.4,7.789,8.958,24.613-18.365,6.684,7.789,21.4,18.365-6.684,8.958,24.613,21.4-7.789-8.958-24.613,18.365-6.684Z" fill="#c7d2d7"/><path d="M439.507,214.632l-18.364,6.684L412.185,196.7l-21.4,7.789,8.958,24.613-18.365,6.684,7.789,21.4,18.365-6.684,8.958,24.613,21.4-7.789-8.958-24.613,18.365-6.684Z" fill="#fff"/></g><path d="M600.188,352.664c-.927-2.789-2.336-5.547-4.515-7.086s-5.244-1.441-6.681.832c-1.114,1.764-1,4.362-.209,6.494a7.011,7.011,0,0,0,.5,1.038,3.279,3.279,0,0,1-2.419,4.856,22.565,22.565,0,0,1-13.146-1.953,53.511,53.511,0,0,0-2.772-7.348,14.237,14.237,0,0,1,5.505-6.415,2.122,2.122,0,0,1,3.222,1.237c.047.174.1.346.158.514a5.986,5.986,0,0,0,2.02,3.141,2.74,2.74,0,0,0,3.972-1.268,7.782,7.782,0,0,0-.006-5.128,20.581,20.581,0,0,0-3.7-7.321,8.89,8.89,0,0,0-4.256-3.265,2.952,2.952,0,0,0-3.826,1.958,4.912,4.912,0,0,0,1.292,3.941,4.5,4.5,0,0,0,.526.514,2.093,2.093,0,0,1-.391,3.441,14.375,14.375,0,0,1-8.383,1.693,54.291,54.291,0,0,0-6.564-8.144,20.172,20.172,0,0,1,4.122-10.439,2.973,2.973,0,0,1,4.836.084c.146.206.3.407.455.6a8.4,8.4,0,0,0,4.166,3.169,3.84,3.84,0,0,0,4.624-3.574c.194-2.257-1-4.669-2.465-6.753a28.872,28.872,0,0,0-8.389-7.867c-2.24-1.379-4.792-2.459-7.171-2.26s-4.424,2.028-4.1,4.413a6.884,6.884,0,0,0,3.592,4.572,6.173,6.173,0,0,0,.938.425,2.933,2.933,0,0,1,1.135,4.72,20.305,20.305,0,0,1-9.8,6.134,53.955,53.955,0,0,0-8.86-4.92,12.1,12.1,0,0,1,.095-7.113,1.8,1.8,0,0,1,2.769-.954q.189.132.383.249a5.092,5.092,0,0,0,3.027.94,2.325,2.325,0,0,0,1.89-2.991,6.605,6.605,0,0,0-2.8-3.331,17.461,17.461,0,0,0-6.4-2.739,7.548,7.548,0,0,0-4.548.2,2.5,2.5,0,0,0-1.419,3.359,4.166,4.166,0,0,0,2.99,1.857,3.8,3.8,0,0,0,.622.048,1.776,1.776,0,0,1,1.623,2.45,12.186,12.186,0,0,1-4.579,5.709,53.737,53.737,0,0,0-10.043-1.955,20.179,20.179,0,0,1-3.547-10.637,2.974,2.974,0,0,1,3.759-3.045c.245.064.49.122.735.169a8.4,8.4,0,0,0,5.229-.251,3.84,3.84,0,0,0,1.244-5.71c-1.3-1.853-3.764-2.935-6.229-3.588a28.847,28.847,0,0,0-11.482-.634c-2.6.383-5.252,1.2-6.947,2.878s-2.085,4.4-.3,6.016a6.882,6.882,0,0,0,5.689,1.194,6.216,6.216,0,0,0,.993-.278,2.934,2.934,0,0,1,3.9,2.887,20.316,20.316,0,0,1-3.566,11,53.723,53.723,0,0,0-11.479,2.4,13.836,13.836,0,0,1-1.591-2.779,1.8,1.8,0,0,1,1.508-2.51c.153-.014.3-.032.453-.056a5.089,5.089,0,0,0,2.923-1.225,2.327,2.327,0,0,0-.474-3.507,6.614,6.614,0,0,0-4.287-.751,17.472,17.472,0,0,0-6.664,2.017,7.535,7.535,0,0,0-3.355,3.076,2.5,2.5,0,0,0,1.072,3.485,4.165,4.165,0,0,0,3.484-.5,3.853,3.853,0,0,0,.507-.363,1.775,1.775,0,0,1,2.818.833,13.866,13.866,0,0,1,.627,3.352,53.847,53.847,0,0,0-11.944,6.537,16.389,16.389,0,0,1-7.05-4.539,2.38,2.38,0,0,1,.738-3.8c.183-.086.363-.177.538-.274a6.72,6.72,0,0,0,3.075-2.843,3.073,3.073,0,0,0-2.174-4.139c-1.751-.466-3.816.137-5.662,1a23.072,23.072,0,0,0-7.363,5.516A9.967,9.967,0,0,0,469.6,324.7a3.309,3.309,0,0,0,2.907,3.844,5.512,5.512,0,0,0,4.1-2.194,5.129,5.129,0,0,0,.465-.681,2.348,2.348,0,0,1,3.877-.239,16.494,16.494,0,0,1,3.418,7.971,54.245,54.245,0,0,0-8,9.808,15.5,15.5,0,0,1-4.157-1.406,2.066,2.066,0,0,1-.526-3.318c.124-.125.243-.252.357-.383a5.837,5.837,0,0,0,1.665-3.232,2.669,2.669,0,0,0-3-2.731,7.577,7.577,0,0,0-4.32,2.5,20.03,20.03,0,0,0-4.368,6.684,8.652,8.652,0,0,0-.681,5.177,2.872,2.872,0,0,0,3.512,2.272,4.782,4.782,0,0,0,2.693-3.007,4.393,4.393,0,0,0,.178-.693,2.037,2.037,0,0,1,3.091-1.346,15.574,15.574,0,0,1,3.486,3.008,53.627,53.627,0,0,0-4.372,10.921,20.183,20.183,0,0,1-11.092,1.646,2.974,2.974,0,0,1-2.345-4.231c.1-.23.2-.461.293-.694a8.4,8.4,0,0,0,.661-5.193,3.84,3.84,0,0,0-5.407-2.217c-2.052.96-3.545,3.2-4.615,5.511a28.854,28.854,0,0,0-2.619,11.2c-.074,2.629.267,5.38,1.629,7.341s3.968,2.817,5.872,1.344a6.883,6.883,0,0,0,2.163-5.395,6.327,6.327,0,0,0-.1-1.026,2.934,2.934,0,0,1,3.52-3.343,20.305,20.305,0,0,1,10.225,5.434c-.1,1.367-.173,2.744-.173,4.138a54.368,54.368,0,0,0,.722,8.786,17.743,17.743,0,0,1-4.443,1.7,2.352,2.352,0,0,1-2.887-2.51c.016-.2.027-.4.03-.6a6.646,6.646,0,0,0-.914-4.038,3.038,3.038,0,0,0-4.619-.185c-1.265,1.269-1.769,3.335-1.939,5.345a22.819,22.819,0,0,0,1.083,9.032,9.859,9.859,0,0,0,3.2,5.015,3.272,3.272,0,0,0,4.729-.589,5.447,5.447,0,0,0,.148-4.6,4.879,4.879,0,0,0-.353-.735,2.321,2.321,0,0,1,1.713-3.437,17.808,17.808,0,0,1,5.178.062,53.627,53.627,0,0,0,3.7,10.2c-2.521,4.126-8.374,8.817-11.7,11.006a2.974,2.974,0,0,1-4.516-1.733c-.067-.244-.14-.485-.222-.721a8.4,8.4,0,0,0-2.831-4.4,3.842,3.842,0,0,0-5.568,1.777c-.954,2.055-.659,4.728.008,7.189a28.859,28.859,0,0,0,5.192,10.262c1.633,2.061,3.662,3.949,5.966,4.576s4.85-.393,5.362-2.744a6.886,6.886,0,0,0-1.811-5.525,6.287,6.287,0,0,0-.736-.72,2.934,2.934,0,0,1,.547-4.824c3.735-1.943,11.181-4.778,16.134-4.72a54.253,54.253,0,0,0,6.227,6.821,16.305,16.305,0,0,1-2.353,4.389,2.2,2.2,0,0,1-3.575-.062q-.162-.229-.336-.445a6.206,6.206,0,0,0-3.08-2.342,2.839,2.839,0,0,0-3.417,2.642,8.072,8.072,0,0,0,1.822,4.991,21.333,21.333,0,0,0,6.2,5.814,9.209,9.209,0,0,0,5.3,1.67,3.057,3.057,0,0,0,3.031-3.261,5.088,5.088,0,0,0-2.654-3.379,4.572,4.572,0,0,0-.694-.314,2.169,2.169,0,0,1-.839-3.489,16.463,16.463,0,0,1,4.077-3.27,54,54,0,0,0,11.1,6.672,16.329,16.329,0,0,1-.41,8.327,2.37,2.37,0,0,1-3.646,1.256q-.249-.173-.505-.327a6.7,6.7,0,0,0-3.985-1.237,3.062,3.062,0,0,0-2.49,3.938c.471,1.744,2.02,3.226,3.689,4.386A22.983,22.983,0,0,0,501,441.424a9.935,9.935,0,0,0,5.989-.263,3.3,3.3,0,0,0,1.869-4.424,5.487,5.487,0,0,0-3.937-2.445,4.963,4.963,0,0,0-.819-.063A2.339,2.339,0,0,1,501.961,431a16.456,16.456,0,0,1,5.156-6.908,53.867,53.867,0,0,0,12.984,2.03,13.807,13.807,0,0,1,.551,3.172,1.8,1.8,0,0,1-2.276,1.843c-.148-.039-.3-.073-.445-.1a5.087,5.087,0,0,0-3.165.152,2.326,2.326,0,0,0-.754,3.457,6.605,6.605,0,0,0,3.771,2.172,17.481,17.481,0,0,0,6.952.384,7.544,7.544,0,0,0,4.205-1.743,2.5,2.5,0,0,0,.184-3.642,4.169,4.169,0,0,0-3.444-.723,3.878,3.878,0,0,0-.6.169,1.776,1.776,0,0,1-2.363-1.748,13.856,13.856,0,0,1,.563-3.379,54.019,54.019,0,0,0,10.779-1.349,23.719,23.719,0,0,1,8.787,10.778,3.528,3.528,0,0,1-2.955,4.919c-.3.028-.6.064-.888.11-2.082.331-4.328.923-5.727,2.4a4.557,4.557,0,0,0,.93,6.871c2.2,1.538,5.387,1.745,8.4,1.472a34.235,34.235,0,0,0,13.057-3.952c2.746-1.483,5.369-3.465,6.576-6.027s.54-5.748-2.1-6.83c-2.049-.84-4.745-.243-6.828.977a7.468,7.468,0,0,0-.993.713,3.481,3.481,0,0,1-5.523-1.634,23.89,23.89,0,0,1-.332-14.31,53.975,53.975,0,0,0,7.936-4.953,17.51,17.51,0,0,1,4.593,3.524,2.379,2.379,0,0,1-.738,3.8c-.183.087-.362.178-.537.275a6.718,6.718,0,0,0-3.075,2.842,3.073,3.073,0,0,0,2.173,4.14c1.751.466,3.817-.138,5.662-1.005a23.073,23.073,0,0,0,7.363-5.516,9.967,9.967,0,0,0,2.777-5.336,3.309,3.309,0,0,0-2.907-3.843,5.5,5.5,0,0,0-4.1,2.194,5.051,5.051,0,0,0-.466.68,2.346,2.346,0,0,1-3.876.239,17.611,17.611,0,0,1-2.838-5.348,54.3,54.3,0,0,0,7.407-8.369,20.173,20.173,0,0,1,11,2.246,2.974,2.974,0,0,1,.757,4.778c-.178.18-.35.363-.513.552a8.4,8.4,0,0,0-2.4,4.654A3.842,3.842,0,0,0,579,419.761c2.256-.2,4.425-1.793,6.222-3.6a28.872,28.872,0,0,0,6.291-9.627c.969-2.446,1.589-5.147.98-7.455s-2.765-4-5.058-3.272a6.885,6.885,0,0,0-3.879,4.331,6.359,6.359,0,0,0-.255,1,2.934,2.934,0,0,1-4.452,1.937,20.319,20.319,0,0,1-7.743-8.589,53.6,53.6,0,0,0,3.507-10.457,16.358,16.358,0,0,1,4.97-.155A2.2,2.2,0,0,1,581.317,387c-.078.169-.151.34-.217.513a6.209,6.209,0,0,0-.489,3.836,2.838,2.838,0,0,0,3.995,1.638,8.057,8.057,0,0,0,3.41-4.072,21.3,21.3,0,0,0,1.934-8.272,9.208,9.208,0,0,0-1.2-5.424,3.056,3.056,0,0,0-4.338-.993,5.084,5.084,0,0,0-1.6,3.986,4.552,4.552,0,0,0,.075.758,2.168,2.168,0,0,1-2.6,2.47,16.47,16.47,0,0,1-4.864-1.892,54.376,54.376,0,0,0,.515-7.375c0-1.108-.044-2.206-.11-3.3a22.409,22.409,0,0,1,11.3-6.251,3.323,3.323,0,0,1,4.08,3.546c-.023.282-.038.563-.043.842-.033,1.985.148,4.166,1.291,5.706a4.293,4.293,0,0,0,6.526.261c1.787-1.793,2.5-4.713,2.739-7.552A32.236,32.236,0,0,0,600.188,352.664Z" fill="#adbf53"/><path d="M512.626,335.1c.317,1.856-1.17,3.762-3.214,5.762-1.039.989-2.222,2.057-3.518,3.132-1.28,1.109-2.667,2.242-4.125,3.437-1.44,1.216-2.806,2.374-4.13,3.431-1.292,1.079-2.558,2.047-3.719,2.889-2.339,1.647-4.483,2.762-6.251,2.113-1.7-.615-2.667-3.141-1.977-6.832a18.417,18.417,0,0,1,2.368-5.98,24.043,24.043,0,0,1,11.9-9.9,18.431,18.431,0,0,1,6.312-1.24C510.023,331.9,512.33,333.312,512.626,335.1Z" fill="#7ca566"/><path d="M487.059,389.135c-1.352.444-3.1-.591-4.606-2.9a20.927,20.927,0,0,1-.471-19.97c1.393-2.377,3.092-3.494,4.463-3.115,1.4.386,2.256,2.1,2.8,4.416a54.837,54.837,0,0,1,.4,17.026C489.213,386.929,488.442,388.684,487.059,389.135Z" fill="#7ca566"/><path d="M527.336,410.854c.165,1.295-1.07,2.689-3.4,3.647a19.3,19.3,0,0,1-18.059-2.924c-1.913-1.646-2.645-3.358-2.08-4.535.575-1.2,2.264-1.7,4.444-1.8a49.235,49.235,0,0,1,15.452,2.5C525.723,408.531,527.171,409.531,527.336,410.854Z" fill="#7ca566"/><path d="M552.663,367.269c2.541,3.41-2.381,11.377-10.994,17.8s-17.655,8.858-20.2,5.449,2.381-11.378,10.994-17.8S550.122,363.859,552.663,367.269Z" fill="#7ca566"/><path d="M514.18,357.358c1.545.667,2.249,2.788,2.427,5.582a53.309,53.309,0,0,1-3.531,19.835c-1.132,2.561-2.524,4.309-4.2,4.4-1.652.093-3.292-1.575-4.345-4.542a25.643,25.643,0,0,1,4.007-22.514C510.547,357.7,512.662,356.7,514.18,357.358Z" fill="#7ca566"/><path d="M507.283,399.2c-.366.643-1.416.857-2.823.437a10.195,10.195,0,0,1-6.632-8.26c-.107-1.464.329-2.443,1.036-2.661.727-.226,1.58.283,2.479,1.1a39.274,39.274,0,0,1,5.4,6.732C507.348,397.592,507.66,398.535,507.283,399.2Z" fill="#7ca566"/><path d="M503.182,355.018c1.043,1-.022,3.795-1.938,6.592-1.932,2.785-4.166,4.777-5.469,4.157-1.286-.6-.99-3.93,1.2-7.1S502.161,354.032,503.182,355.018Z" fill="#7ca566"/><path d="M542.28,346.766c-.514,1.359-2.3,2.048-4.657,2.364a53.913,53.913,0,0,1-16.992-1.271c-2.283-.664-3.948-1.611-4.254-3.031-.3-1.389.906-3.02,3.35-4.281a20.992,20.992,0,0,1,19.878,1.488C541.834,343.645,542.785,345.437,542.28,346.766Z" fill="#7ca566"/><path d="M539.722,332.549c-.319.707-1.291,1.014-2.543,1.122a32.18,32.18,0,0,1-8.938-.933c-1.2-.363-2.09-.864-2.257-1.621-.164-.739.479-1.616,1.8-2.282a10.88,10.88,0,0,1,10.647,1.11C539.586,330.87,540.035,331.86,539.722,332.549Z" fill="#7ca566"/><path d="M561.119,362.675c-1.3.134-2.556-1-3.819-2.59a100.136,100.136,0,0,1-7.531-12.289c-.847-1.849-1.283-3.483-.574-4.579.681-1.062,2.518-1.33,4.9-.394a13.344,13.344,0,0,1,3.723,2.31,17.607,17.607,0,0,1,5.508,8.988,13.322,13.322,0,0,1,.368,4.367C563.448,361.035,562.375,362.55,561.119,362.675Z" fill="#7ca566"/><path d="M553.8,396.505c-.68-.782-.518-2.117-.05-3.668a73.858,73.858,0,0,1,4.687-10.5c.843-1.385,1.729-2.4,2.765-2.412,1-.019,1.99,1.074,2.431,3.052a13.283,13.283,0,0,1-5.938,13.3C555.931,397.27,554.459,397.265,553.8,396.505Z" fill="#7ca566"/><path d="M545.592,402.925c.567.5.559,1.585-.1,2.9a11.152,11.152,0,0,1-9.05,5.575c-1.467,0-2.436-.482-2.631-1.214-.2-.748.359-1.6,1.278-2.471a29.068,29.068,0,0,1,7.721-4.756C544,402.526,545.015,402.41,545.592,402.925Z" fill="#7ca566"/><path d="M545.468,359.647c.229,2.372-4.652,4.785-10.922,4.808s-11.172-2.333-10.965-4.708c.206-2.4,5.091-3.93,10.926-3.965C540.341,355.763,545.24,357.252,545.468,359.647Z" fill="#7ca566"/><path d="M543.323,393.069c.763.843.568,2.487-.746,4.338a15.456,15.456,0,0,1-15.438,5.414c-2.183-.624-3.362-1.786-3.292-2.921.068-1.169,1.26-2.122,2.9-2.987a66.768,66.768,0,0,1,12.447-4.366C541.013,392.2,542.539,392.2,543.323,393.069Z" fill="#7ca566"/><path d="M498.061,407.051c-.587.822-1.939,1.006-3.653.483a14.606,14.606,0,0,1-8.9-9.351c-.438-1.737-.188-3.079.661-3.625s2.139-.245,3.546.558a24.257,24.257,0,0,1,7.967,8.366C498.41,404.927,498.655,406.219,498.061,407.051Z" fill="#7ca566"/><path d="M545.13,404.485c.488,2.507-.378,5.215-2.894,7.756-2.5,2.541-6.682,4.767-12.268,5.894a39.19,39.19,0,0,1-9.266.666,46.235,46.235,0,0,1-10.615-1.811,50.165,50.165,0,0,1-34.141-34.855,46.288,46.288,0,0,1-1.59-10.65,39.183,39.183,0,0,1,.858-9.25c1.242-5.562,3.554-9.7,6.146-12.144,2.593-2.463,5.318-3.272,7.814-2.732,2.54.545,4.662,2.316,6.61,4.582a83.982,83.982,0,0,1,5.75,8.034,114.173,114.173,0,0,0,13.649,17.876,114.2,114.2,0,0,0,17.589,14.016,83.978,83.978,0,0,1,7.914,5.915C542.911,399.777,544.637,401.935,545.13,404.485Z" fill="#4d8c84" opacity="0.3"/><path d="M684.947,305.113a10.016,10.016,0,0,0,1.459-5.861,3.322,3.322,0,0,0-3.74-3.069,5.527,5.527,0,0,0-3.488,3.1,5.039,5.039,0,0,0-.295.773,2.356,2.356,0,0,1-3.728,1.142,16.212,16.212,0,0,1-5.487-7.818,38.533,38.533,0,0,0,2.458-5.08,10.23,10.23,0,0,1,6.067-.306,1.525,1.525,0,0,1,.95,2.291c-.067.111-.131.223-.19.337a4.3,4.3,0,0,0-.637,2.607,1.968,1.968,0,0,0,2.626,1.443,5.589,5.589,0,0,0,2.67-2.541,14.785,14.785,0,0,0,1.983-5.553,6.384,6.384,0,0,0-.4-3.834,2.12,2.12,0,0,0-2.913-1.025,3.526,3.526,0,0,0-1.415,2.624,3.3,3.3,0,0,0-.008.528,1.5,1.5,0,0,1-1.987,1.5,10.341,10.341,0,0,1-5.031-3.531,38.938,38.938,0,0,0,1-7.452,14.505,14.505,0,0,1,7.48-3.018,2.138,2.138,0,0,1,2.35,2.563c-.035.178-.065.356-.088.534a6.029,6.029,0,0,0,.41,3.74,2.76,2.76,0,0,0,4.151.641,7.839,7.839,0,0,0,2.3-4.626,20.742,20.742,0,0,0-.051-8.265,8.954,8.954,0,0,0-2.371-4.856,2.973,2.973,0,0,0-4.329.046,4.951,4.951,0,0,0-.606,4.134,4.546,4.546,0,0,0,.243.7,2.109,2.109,0,0,1-1.9,2.928,14.6,14.6,0,0,1-8.048-2.074,38.684,38.684,0,0,0-1.821-7.053,8.7,8.7,0,0,1,3.755-3.47,1.294,1.294,0,0,1,1.867.971c.017.109.037.216.06.323a3.667,3.667,0,0,0,1.008,2.042,1.672,1.672,0,0,0,2.495-.495,4.747,4.747,0,0,0,.349-3.108,12.542,12.542,0,0,0-1.74-4.691,5.421,5.421,0,0,0-2.354-2.272,1.8,1.8,0,0,0-2.453.923,3,3,0,0,0,.511,2.478,2.737,2.737,0,0,0,.283.347,1.276,1.276,0,0,1-.474,2.059,8.759,8.759,0,0,1-5.241.439,38.574,38.574,0,0,0-3.951-6.2,14.5,14.5,0,0,1,3.789-7.113,2.138,2.138,0,0,1,3.447.453c.088.159.179.315.276.466a6.031,6.031,0,0,0,2.718,2.6,2.76,2.76,0,0,0,3.592-2.177,7.838,7.838,0,0,0-1.213-5.022,20.741,20.741,0,0,0-5.351-6.3,8.968,8.968,0,0,0-4.938-2.2,2.973,2.973,0,0,0-3.286,2.819,4.945,4.945,0,0,0,2.193,3.556,4.551,4.551,0,0,0,.636.38,2.108,2.108,0,0,1,.427,3.463,14.6,14.6,0,0,1-7.5,3.584,38.678,38.678,0,0,0-6.931-4.795,9.924,9.924,0,0,1,.66-2.2,1.294,1.294,0,0,1,2.055-.456c.083.072.167.142.253.208a3.66,3.66,0,0,0,2.085.917,1.671,1.671,0,0,0,1.593-1.982,4.739,4.739,0,0,0-1.73-2.606,12.538,12.538,0,0,0-4.348-2.475,5.42,5.42,0,0,0-3.264-.227,1.8,1.8,0,0,0-1.286,2.284,3,3,0,0,0,1.984,1.569,2.763,2.763,0,0,0,.44.084,1.276,1.276,0,0,1,.961,1.881,10,10,0,0,1-1.437,1.985,38.759,38.759,0,0,0-9.318-2.99,11.774,11.774,0,0,1-1.123-5.92,1.71,1.71,0,0,1,2.345-1.5c.136.052.272.1.409.144a4.835,4.835,0,0,0,3,.2,2.209,2.209,0,0,0,1.082-3.181,6.272,6.272,0,0,0-3.326-2.454,16.574,16.574,0,0,0-6.519-1.108,7.161,7.161,0,0,0-4.155,1.193,2.378,2.378,0,0,0-.564,3.417,3.957,3.957,0,0,0,3.172,1.052,3.615,3.615,0,0,0,.585-.1,1.687,1.687,0,0,1,2.043,1.9,11.865,11.865,0,0,1-2.462,5.726,39.018,39.018,0,0,0-9.069.685,11.112,11.112,0,0,1-1.324-2.862,1.483,1.483,0,0,1,1.469-1.915c.126,0,.251,0,.376,0a4.193,4.193,0,0,0,2.508-.732,1.917,1.917,0,0,0-.062-2.916,5.448,5.448,0,0,0-3.441-1.014,14.419,14.419,0,0,0-5.646,1.031,6.225,6.225,0,0,0-3.035,2.207A2.064,2.064,0,0,0,620,232.65a3.437,3.437,0,0,0,2.9-.084,3.24,3.24,0,0,0,.449-.251,1.464,1.464,0,0,1,2.231.945,11.232,11.232,0,0,1,.158,3.306,38.542,38.542,0,0,0-7.856,3.126,14.514,14.514,0,0,1-6.347-4.967,2.138,2.138,0,0,1,1.045-3.316c.172-.059.341-.122.507-.191a6.032,6.032,0,0,0,3.034-2.225,2.76,2.76,0,0,0-1.521-3.915,7.842,7.842,0,0,0-5.156.322,20.733,20.733,0,0,0-7.132,4.176,8.96,8.96,0,0,0-3.02,4.482,2.973,2.973,0,0,0,2.205,3.726,4.948,4.948,0,0,0,3.883-1.543,4.578,4.578,0,0,0,.484-.56,2.109,2.109,0,0,1,3.485.18,14.6,14.6,0,0,1,2.227,8.019c-.764.622-1.516,1.267-2.242,1.957a39.063,39.063,0,0,0-4.222,4.724,12.726,12.726,0,0,1-3.083-1.475,1.69,1.69,0,0,1-.121-2.747c.112-.091.221-.183.325-.279a4.778,4.778,0,0,0,1.653-2.475,2.183,2.183,0,0,0-2.189-2.5,6.205,6.205,0,0,0-3.746,1.635,16.388,16.388,0,0,0-4.171,5.033,7.087,7.087,0,0,0-1.033,4.148,2.351,2.351,0,0,0,2.647,2.173,3.909,3.909,0,0,0,2.469-2.2,3.523,3.523,0,0,0,.209-.547,1.667,1.667,0,0,1,2.638-.809,12.792,12.792,0,0,1,2.531,2.729,38.479,38.479,0,0,0-3.483,6.974c-3.4.727-8.74,0-11.527-.653a2.137,2.137,0,0,1-1.332-3.211q.141-.234.266-.472a6.039,6.039,0,0,0,.894-3.655,2.761,2.761,0,0,0-3.682-2.022,7.845,7.845,0,0,0-3.743,3.561,20.76,20.76,0,0,0-2.779,7.784,8.952,8.952,0,0,0,.568,5.374,2.973,2.973,0,0,0,4.084,1.437,4.948,4.948,0,0,0,1.983-3.678,4.65,4.65,0,0,0,.011-.74,2.108,2.108,0,0,1,2.785-2.1c2.861.985,8.023,3.463,10.444,6.073a39.057,39.057,0,0,0-.474,6.621,11.691,11.691,0,0,1-3.452.945,1.579,1.579,0,0,1-1.737-1.893c.026-.132.049-.264.066-.395a4.469,4.469,0,0,0-.3-2.765,2.04,2.04,0,0,0-3.068-.473,5.791,5.791,0,0,0-1.7,3.419,15.345,15.345,0,0,0,.038,6.109,6.625,6.625,0,0,0,1.752,3.589,2.2,2.2,0,0,0,3.2-.035,3.656,3.656,0,0,0,.448-3.055,3.349,3.349,0,0,0-.18-.517,1.559,1.559,0,0,1,1.4-2.164,11.838,11.838,0,0,1,3.722.507,38.793,38.793,0,0,0,2.018,9.089,11.759,11.759,0,0,1-4.543,3.907,1.7,1.7,0,0,1-2.459-1.279c-.022-.143-.049-.285-.08-.425a4.808,4.808,0,0,0-1.327-2.689,2.2,2.2,0,0,0-3.285.651,6.251,6.251,0,0,0-.46,4.093,16.526,16.526,0,0,0,2.291,6.178,7.143,7.143,0,0,0,3.1,2.992,2.37,2.37,0,0,0,3.23-1.216,3.944,3.944,0,0,0-.673-3.262,3.744,3.744,0,0,0-.373-.458,1.681,1.681,0,0,1,.624-2.711,11.833,11.833,0,0,1,6.152-.731,38.73,38.73,0,0,0,5.367,7.771,9.922,9.922,0,0,1-1.38,1.857,1.294,1.294,0,0,1-2.087-.274c-.053-.1-.109-.19-.167-.282a3.654,3.654,0,0,0-1.646-1.575,1.671,1.671,0,0,0-2.174,1.318,4.747,4.747,0,0,0,.734,3.041,12.549,12.549,0,0,0,3.24,3.813,5.421,5.421,0,0,0,2.989,1.329,1.8,1.8,0,0,0,1.989-1.706,2.993,2.993,0,0,0-1.327-2.153,2.737,2.737,0,0,0-.385-.23,1.276,1.276,0,0,1-.259-2.1,9.966,9.966,0,0,1,2.039-1.379,38.885,38.885,0,0,0,6.038,4.95,17.048,17.048,0,0,1-1.269,9.913,2.536,2.536,0,0,1-4.026.895c-.162-.142-.328-.279-.5-.408a7.156,7.156,0,0,0-4.085-1.8,3.275,3.275,0,0,0-3.121,3.884c.289,1.91,1.757,3.672,3.389,5.107a24.619,24.619,0,0,0,8.522,4.85,10.621,10.621,0,0,0,6.4.444c1.933-.639,3.263-2.562,2.52-4.475a5.868,5.868,0,0,0-3.888-3.075,5.426,5.426,0,0,0-.863-.165,2.5,2.5,0,0,1-1.881-3.687,17.17,17.17,0,0,1,7.293-7.255,38.731,38.731,0,0,0,6.509,1.686,12.579,12.579,0,0,1,.436,4.138,1.71,1.71,0,0,1-2.345,1.495q-.2-.079-.409-.144a4.832,4.832,0,0,0-3-.2,2.207,2.207,0,0,0-1.082,3.181,6.279,6.279,0,0,0,3.326,2.454,16.605,16.605,0,0,0,6.518,1.108,7.162,7.162,0,0,0,4.155-1.194,2.377,2.377,0,0,0,.565-3.416,3.957,3.957,0,0,0-3.173-1.052,3.628,3.628,0,0,0-.585.094,1.687,1.687,0,0,1-2.043-1.9,12.669,12.669,0,0,1,1.383-4.126,38.981,38.981,0,0,0,8.027-.281,14.5,14.5,0,0,1,4.272,6.843,2.137,2.137,0,0,1-2.115,2.759c-.182,0-.363,0-.542.006a6.04,6.04,0,0,0-3.612,1.053,2.761,2.761,0,0,0,.089,4.2,7.842,7.842,0,0,0,4.956,1.46,20.723,20.723,0,0,0,8.131-1.485,8.953,8.953,0,0,0,4.37-3.178,2.972,2.972,0,0,0-.8-4.255,4.945,4.945,0,0,0-4.176.121,4.525,4.525,0,0,0-.647.361,2.108,2.108,0,0,1-3.212-1.361,14.593,14.593,0,0,1,.644-8.286,38.556,38.556,0,0,0,7.186-3.347,11.748,11.748,0,0,1,2.54,2.513,1.58,1.58,0,0,1-.772,2.45c-.127.043-.252.09-.374.141a4.458,4.458,0,0,0-2.242,1.644,2.039,2.039,0,0,0,1.124,2.892,5.79,5.79,0,0,0,3.809-.238,15.3,15.3,0,0,0,5.269-3.085,6.615,6.615,0,0,0,2.231-3.311,2.2,2.2,0,0,0-1.629-2.753,3.653,3.653,0,0,0-2.868,1.14,3.22,3.22,0,0,0-.358.414,1.559,1.559,0,0,1-2.575-.133,11.85,11.85,0,0,1-1.42-3.471,39.161,39.161,0,0,0,4.1-3.382c.578-.548,1.128-1.114,1.665-1.689a16.113,16.113,0,0,1,8.849,2.795,2.389,2.389,0,0,1,.171,3.882c-.158.127-.312.258-.46.394a6.75,6.75,0,0,0-2.335,3.5,3.085,3.085,0,0,0,3.093,3.531c1.819.044,3.693-1.029,5.292-2.309A23.177,23.177,0,0,0,684.947,305.113Z" fill="#adbf53"/><path d="M650.772,250.783c-.811,1.083-2.54,1.252-4.594,1.176-1.03-.052-2.172-.14-3.373-.284-1.212-.118-2.489-.28-3.833-.449-1.346-.148-2.626-.287-3.832-.454-1.2-.14-2.333-.32-3.346-.509-2.016-.4-3.658-.97-4.2-2.212-.521-1.191.317-2.945,2.582-4.411a13.24,13.24,0,0,1,4.289-1.726,17.279,17.279,0,0,1,11.046,1.3,13.24,13.24,0,0,1,3.77,2.676C651.148,247.845,651.555,249.745,650.772,250.783Z" fill="#7ca566"/><path d="M609.955,264.2c-.9-.485-1.226-1.909-.767-3.836a15.038,15.038,0,0,1,10.174-10.128c1.929-.45,3.351-.117,3.833.785.493.922.02,2.216-.919,3.643A39.385,39.385,0,0,1,613.6,263.3C612.171,264.23,610.875,264.7,609.955,264.2Z" fill="#7ca566"/><path d="M618.567,295.939c-.593.726-1.931.773-3.586.03a13.87,13.87,0,0,1-7.412-10.859c-.089-1.811.441-3.041,1.334-3.329.911-.3,2,.341,3.138,1.425a35.4,35.4,0,0,1,6.343,9.291C618.98,293.949,619.175,295.2,618.567,295.939Z" fill="#7ca566"/><path d="M653.817,287.57c-.52,3.012-7.108,4.39-14.716,3.077s-13.354-4.818-12.834-7.83,7.108-4.389,14.716-3.076S654.336,284.558,653.817,287.57Z" fill="#7ca566"/><path d="M639.939,262.609c.416,1.135-.341,2.551-1.709,4.027a38.309,38.309,0,0,1-12.085,7.976c-1.9.677-3.495.816-4.375-.013s-.808-2.5.217-4.513a18.429,18.429,0,0,1,13.717-9.052C637.962,260.884,639.53,261.492,639.939,262.609Z" fill="#7ca566"/><path d="M614.72,279.718c-.516.128-1.148-.314-1.625-1.255a7.329,7.329,0,0,1,1.023-7.544c.71-.78,1.436-1.038,1.9-.777s.634.964.655,1.834a28.208,28.208,0,0,1-.833,6.149C615.588,278.958,615.251,279.588,614.72,279.718Z" fill="#7ca566"/><path d="M635.715,255.719c0,1.037-1.989,1.866-4.394,2.252s-4.552.192-4.874-.793c-.322-.969,1.559-2.461,4.295-2.888S635.724,254.7,635.715,255.719Z" fill="#7ca566"/><path d="M659.364,272.013c-.962.4-2.206-.187-3.536-1.258a38.7,38.7,0,0,1-7.747-9.485c-.783-1.518-1.114-2.855-.525-3.717.575-.844,2.022-1.022,3.889-.372a15.084,15.084,0,0,1,9.061,11.1C660.77,270.236,660.307,271.619,659.364,272.013Z" fill="#7ca566"/><path d="M665.508,263.644c-.526.183-1.167-.171-1.843-.77a23.145,23.145,0,0,1-3.937-5.12c-.406-.807-.584-1.517-.272-1.979s1.08-.549,2.08-.191a7.821,7.821,0,0,1,4.69,6.1C666.316,262.742,666.022,263.466,665.508,263.644Z" fill="#7ca566"/><path d="M660.4,289.7c-.712-.61-.745-1.825-.54-3.272a72.042,72.042,0,0,1,2.678-10.007c.545-1.356,1.181-2.392,2.1-2.565.891-.17,1.939.655,2.63,2.359a9.629,9.629,0,0,1,.639,3.084,12.66,12.66,0,0,1-1.959,7.319,9.576,9.576,0,0,1-2.094,2.352C662.4,290.106,661.082,290.3,660.4,289.7Z" fill="#7ca566"/><path d="M639.143,302.633c.071-.742.847-1.318,1.887-1.842a53.043,53.043,0,0,1,7.791-2.752c1.138-.246,2.1-.284,2.625.248.506.513.425,1.568-.388,2.777a9.542,9.542,0,0,1-9.869,3.486C639.8,304.12,639.072,303.35,639.143,302.633Z" fill="#7ca566"/><path d="M631.734,301.53c.018.544-.55,1.076-1.558,1.381a8.009,8.009,0,0,1-7.384-1.958c-.725-.765-.955-1.508-.67-1.971s1.013-.606,1.921-.557a20.9,20.9,0,0,1,6.3,1.67C631.154,300.5,631.716,300.974,631.734,301.53Z" fill="#7ca566"/><path d="M654.229,280.048c-1.123,1.294-4.8-.056-7.911-3.312s-4.313-6.978-2.973-8.045,4.568.708,7.474,3.732S655.364,278.744,654.229,280.048Z" fill="#7ca566"/><path d="M635.748,295.47c-.062.815-1.015,1.526-2.63,1.757a11.107,11.107,0,0,1-10.462-5.366c-.754-1.447-.732-2.636-.106-3.162.643-.543,1.729-.393,2.991.033a48.009,48.009,0,0,1,8.435,4.327C635.059,293.835,635.813,294.631,635.748,295.47Z" fill="#7ca566"/><path d="M606.062,278.8c-.719.1-1.484-.513-2.06-1.665a10.5,10.5,0,0,1,.467-9.268c.689-1.088,1.512-1.622,2.217-1.45s1.186.994,1.464,2.124a17.431,17.431,0,0,1-.418,8.293C607.342,277.93,606.79,278.7,606.062,278.8Z" fill="#7ca566"/><g opacity="0.3"><path d="M652.02,297.751c.351,1.8-.271,3.748-2.079,5.574a17.113,17.113,0,0,1-8.818,4.236,28.22,28.22,0,0,1-6.659.479,33.3,33.3,0,0,1-7.629-1.3,36.053,36.053,0,0,1-24.537-25.05,33.292,33.292,0,0,1-1.143-7.655,28.13,28.13,0,0,1,.617-6.647,17.1,17.1,0,0,1,4.417-8.728c1.863-1.77,3.822-2.352,5.616-1.964a9.07,9.07,0,0,1,4.75,3.293,60.273,60.273,0,0,1,4.133,5.775,82.081,82.081,0,0,0,9.81,12.847,82,82,0,0,0,12.641,10.073,60.394,60.394,0,0,1,5.687,4.251A9.065,9.065,0,0,1,652.02,297.751Z" fill="#4d8c84"/></g><path d="M518.91,135.388c-2.65-.077-5.422.264-7.4,1.635s-2.842,4-1.36,5.916a6.94,6.94,0,0,0,5.435,2.185,6.425,6.425,0,0,0,1.034-.1,2.956,2.956,0,0,1,3.365,3.55,20.343,20.343,0,0,1-5.719,10.532,48.321,48.321,0,0,0-7.081.076,12.831,12.831,0,0,1-3.732-6.646,1.914,1.914,0,0,1,2.044-2.347c.162.014.324.023.484.025a5.4,5.4,0,0,0,3.286-.74,2.471,2.471,0,0,0,.154-3.756,7.016,7.016,0,0,0-4.346-1.581,18.563,18.563,0,0,0-7.347.874,8.01,8.01,0,0,0-4.081,2.6,2.661,2.661,0,0,0,.475,3.846,4.431,4.431,0,0,0,3.738.124,3.931,3.931,0,0,0,.6-.287,1.888,1.888,0,0,1,2.794,1.4,12.958,12.958,0,0,1-1.158,7.624,49,49,0,0,0-8.928,3.042,18.191,18.191,0,0,1-7.569-6.719,2.682,2.682,0,0,1,1.567-4.071q.33-.09.65-.2a7.577,7.577,0,0,0,3.973-2.549,3.464,3.464,0,0,0-1.6-5.022c-1.851-.862-4.262-.6-6.482,0a26.017,26.017,0,0,0-9.257,4.673c-1.861,1.471-3.565,3.3-4.132,5.376s.35,4.374,2.47,4.838a6.209,6.209,0,0,0,4.983-1.629,5.614,5.614,0,0,0,.651-.664,2.645,2.645,0,0,1,4.349.5,18.314,18.314,0,0,1,2.165,10.2,48.573,48.573,0,0,0-6.907,5.984,10.909,10.909,0,0,1-6-2.28,1.623,1.623,0,0,1,.048-2.64c.113-.08.223-.162.329-.248a4.592,4.592,0,0,0,1.732-2.273,2.1,2.1,0,0,0-1.949-2.526,5.958,5.958,0,0,0-3.687,1.342,15.752,15.752,0,0,0-4.3,4.576,6.806,6.806,0,0,0-1.238,3.914,2.257,2.257,0,0,0,2.407,2.24,3.758,3.758,0,0,0,2.5-1.958,3.521,3.521,0,0,0,.233-.512,1.6,1.6,0,0,1,2.577-.617,10.98,10.98,0,0,1,3.42,5.643,48.444,48.444,0,0,0-4.761,7.9,18.2,18.2,0,0,1-10.107-.284,2.683,2.683,0,0,1-1.417-4.126c.13-.187.254-.377.37-.57a7.568,7.568,0,0,0,1.4-4.507,3.463,3.463,0,0,0-4.452-2.82c-1.973.53-3.65,2.282-4.965,4.168a26.019,26.019,0,0,0-4.088,9.53c-.479,2.323-.61,4.819.291,6.774s3.08,3.126,5,2.118a6.2,6.2,0,0,0,2.77-4.45,5.579,5.579,0,0,0,.072-.927,2.646,2.646,0,0,1,3.652-2.414,18.324,18.324,0,0,1,8.215,6.422,48.446,48.446,0,0,0-1.517,10.465,12.431,12.431,0,0,1-2.845.489,1.623,1.623,0,0,1-1.66-2.054c.035-.133.066-.267.092-.4a4.589,4.589,0,0,0-.134-2.854,2.1,2.1,0,0,0-3.117-.683,5.964,5.964,0,0,0-1.962,3.4,15.751,15.751,0,0,0-.352,6.268,6.8,6.8,0,0,0,1.568,3.794,2.258,2.258,0,0,0,3.284.169,3.754,3.754,0,0,0,.655-3.105,3.411,3.411,0,0,0-.151-.542,1.6,1.6,0,0,1,1.577-2.13,12.528,12.528,0,0,1,3.033.506,48.558,48.558,0,0,0,1.845,12.138,14.785,14.785,0,0,1-6.025,4.569,2.145,2.145,0,0,1-2.989-1.8q-.025-.273-.067-.54a6.06,6.06,0,0,0-1.457-3.484,2.77,2.77,0,0,0-4.178.562,7.869,7.869,0,0,0-.9,5.107,20.816,20.816,0,0,0,2.4,7.942,8.988,8.988,0,0,0,3.661,4A2.985,2.985,0,0,0,459,236.09a4.968,4.968,0,0,0-.591-4.152,4.531,4.531,0,0,0-.433-.605,2.116,2.116,0,0,1,1-3.357,14.877,14.877,0,0,1,7.808-.432,48.919,48.919,0,0,0,5.836,9.806,13.982,13.982,0,0,1-2.476,3.087,1.863,1.863,0,0,1-2.973-.581c-.067-.143-.139-.283-.214-.42a5.26,5.26,0,0,0-2.223-2.409,2.4,2.4,0,0,0-3.241,1.7,6.834,6.834,0,0,0,.782,4.433,18.057,18.057,0,0,0,4.312,5.766,7.808,7.808,0,0,0,4.174,2.178,2.59,2.59,0,0,0,3.01-2.273,4.308,4.308,0,0,0-1.714-3.211,3.924,3.924,0,0,0-.532-.365,1.836,1.836,0,0,1-.184-3.034,14.06,14.06,0,0,1,3.626-2.023,48.357,48.357,0,0,0,7.9,7.08,18.2,18.2,0,0,1-2.035,9.9,2.682,2.682,0,0,1-4.309.679c-.162-.16-.328-.316-.5-.463a7.576,7.576,0,0,0-4.194-2.166,3.463,3.463,0,0,0-3.55,3.9c.179,2.035,1.612,3.991,3.242,5.613a26.025,26.025,0,0,0,8.675,5.681c2.2.876,4.64,1.437,6.722.89s3.613-2.49,2.955-4.558a6.209,6.209,0,0,0-3.9-3.5,5.59,5.59,0,0,0-.9-.231A2.646,2.646,0,0,1,483.326,259a18.319,18.319,0,0,1,7.765-6.981c1.126.51,2.271.995,3.452,1.426a48.928,48.928,0,0,0,7.665,2.1,15.978,15.978,0,0,1,.065,4.289,2.121,2.121,0,0,1-3.019,1.67c-.164-.075-.329-.146-.495-.21a6,6,0,0,0-3.7-.475,2.74,2.74,0,0,0-1.585,3.856,7.784,7.784,0,0,0,3.929,3.295,20.564,20.564,0,0,0,7.985,1.875,8.878,8.878,0,0,0,5.237-1.157,2.95,2.95,0,0,0,.963-4.187,4.91,4.91,0,0,0-3.847-1.547,4.547,4.547,0,0,0-.732.072,2.092,2.092,0,0,1-2.382-2.513,16.014,16.014,0,0,1,1.653-4.367,48.294,48.294,0,0,0,9.78.018c2.715,3.411,4.88,9.82,5.7,13.316a2.682,2.682,0,0,1-2.864,3.289q-.342-.029-.679-.035a7.579,7.579,0,0,0-4.606,1.037,3.464,3.464,0,0,0-.215,5.266c1.445,1.443,3.8,2.021,6.091,2.216a26.022,26.022,0,0,0,10.3-1.225c2.251-.746,4.478-1.881,5.721-3.639s1.167-4.23-.667-5.391a6.207,6.207,0,0,0-5.239-.174,5.57,5.57,0,0,0-.838.4,2.646,2.646,0,0,1-3.917-1.956c-.492-3.764-.591-10.948.99-15.126a48.985,48.985,0,0,0,7.7-3.166,14.7,14.7,0,0,1,2.99,3.351,1.982,1.982,0,0,1-1.157,3.009c-.163.044-.324.093-.481.147a5.6,5.6,0,0,0-2.936,1.884,2.561,2.561,0,0,0,1.181,3.712,7.269,7.269,0,0,0,4.791,0,19.206,19.206,0,0,0,6.842-3.454,8.3,8.3,0,0,0,3.054-3.973A2.757,2.757,0,0,0,546,252.084a4.593,4.593,0,0,0-3.683,1.2,4.143,4.143,0,0,0-.48.491,1.956,1.956,0,0,1-3.215-.368,14.855,14.855,0,0,1-1.51-4.465A48.688,48.688,0,0,0,546.2,241.6a14.733,14.733,0,0,1,6.927,2.922,2.138,2.138,0,0,1-.064,3.477c-.148.1-.293.213-.433.326a6.047,6.047,0,0,0-2.281,2.993,2.763,2.763,0,0,0,2.567,3.327,7.847,7.847,0,0,0,4.856-1.768,20.739,20.739,0,0,0,5.661-6.026,8.958,8.958,0,0,0,1.63-5.154,2.975,2.975,0,0,0-3.17-2.951,4.947,4.947,0,0,0-3.289,2.579,4.462,4.462,0,0,0-.306.675,2.11,2.11,0,0,1-3.4.813,14.839,14.839,0,0,1-4.257-6.5,48.6,48.6,0,0,0,5.733-10.372,12.449,12.449,0,0,1,2.858.515,1.623,1.623,0,0,1,.857,2.5c-.078.114-.153.229-.224.345a4.6,4.6,0,0,0-.85,2.729,2.1,2.1,0,0,0,2.7,1.707,5.958,5.958,0,0,0,3.006-2.523,15.754,15.754,0,0,0,2.474-5.77,6.792,6.792,0,0,0-.176-4.1,2.258,2.258,0,0,0-3.028-1.282,3.759,3.759,0,0,0-1.677,2.694,3.3,3.3,0,0,0-.043.561,1.6,1.6,0,0,1-2.211,1.462,12.489,12.489,0,0,1-2.688-1.522,48.762,48.762,0,0,0,2.189-9.548,21.394,21.394,0,0,1,11.847-4.111,3.182,3.182,0,0,1,3.253,4.024c-.069.262-.13.524-.181.786-.363,1.866-.557,3.952.263,5.594a4.11,4.11,0,0,0,6.108,1.337c1.983-1.391,3.143-4.024,3.843-6.66a30.849,30.849,0,0,0,.69-12.283c-.407-2.784-1.275-5.619-3.072-7.434s-4.7-2.235-6.436-.331c-1.344,1.475-1.672,3.943-1.282,6.085a6.68,6.68,0,0,0,.3,1.062,3.138,3.138,0,0,1-3.091,4.173A21.542,21.542,0,0,1,559.57,201.8a48.681,48.681,0,0,0-1.741-8.254,15.791,15.791,0,0,1,4.405-2.8,2.145,2.145,0,0,1,2.989,1.8c.017.181.039.362.067.54a6.063,6.063,0,0,0,1.457,3.484,2.771,2.771,0,0,0,4.178-.562,7.868,7.868,0,0,0,.9-5.107,20.811,20.811,0,0,0-2.4-7.942,8.982,8.982,0,0,0-3.661-4,2.985,2.985,0,0,0-4.155,1.274,4.968,4.968,0,0,0,.591,4.152,4.461,4.461,0,0,0,.433.6,2.117,2.117,0,0,1-1,3.358,15.89,15.89,0,0,1-5.408.75,48.923,48.923,0,0,0-4.8-8.861,18.2,18.2,0,0,1,5.3-8.622,2.682,2.682,0,0,1,4.281.836c.1.207.2.409.309.606a7.571,7.571,0,0,0,3.2,3.469,3.463,3.463,0,0,0,4.668-2.445c.527-1.974-.15-4.3-1.126-6.384a26.018,26.018,0,0,0-6.21-8.305c-1.772-1.577-3.868-2.938-6.012-3.136s-4.247,1.1-4.335,3.273a6.207,6.207,0,0,0,2.469,4.625,5.733,5.733,0,0,0,.766.525,2.645,2.645,0,0,1,.265,4.369,18.32,18.32,0,0,1-9.67,3.9,48.274,48.274,0,0,0-7.773-6.2,14.7,14.7,0,0,1,1.405-4.257,1.981,1.981,0,0,1,3.183-.5c.12.119.242.233.368.343a5.593,5.593,0,0,0,3.1,1.6,2.559,2.559,0,0,0,2.623-2.877,7.271,7.271,0,0,0-2.4-4.147,19.2,19.2,0,0,0-6.409-4.2,8.306,8.306,0,0,0-4.966-.658,2.757,2.757,0,0,0-2.183,3.368,4.588,4.588,0,0,0,2.883,2.587,4.255,4.255,0,0,0,.665.171,1.954,1.954,0,0,1,1.288,2.966,14.84,14.84,0,0,1-3.107,3.535,49.067,49.067,0,0,0-6.087-2.716c-.94-.343-1.883-.645-2.829-.927a20.211,20.211,0,0,1-1.8-11.5,3,3,0,0,1,4.265-2.359c.232.106.465.206.7.3a8.466,8.466,0,0,0,5.232.671,3.871,3.871,0,0,0,2.24-5.447c-.966-2.068-3.22-3.575-5.55-4.656A29.081,29.081,0,0,0,518.91,135.388Z" fill="#adbf53"/><path d="M476.956,204.129c1.67.306,2.825,2.154,3.887,4.505.516,1.185,1.056,2.517,1.565,3.947.544,1.428,1.075,2.953,1.637,4.557.585,1.6,1.143,3.112,1.629,4.56.514,1.428.944,2.8,1.3,4.044.672,2.49.953,4.651-.143,5.948-1.047,1.25-3.485,1.288-6.4-.438A16.626,16.626,0,0,1,476.1,227.4a21.68,21.68,0,0,1-4.706-13.138,16.632,16.632,0,0,1,.9-5.73C473.445,205.347,475.353,203.828,476.956,204.129Z" fill="#7ca566"/><path d="M514.826,242.494c-.042,1.282-1.46,2.444-3.881,3a18.87,18.87,0,0,1-17.062-5.775c-1.583-1.915-2-3.7-1.258-4.744.76-1.069,2.478-1.261,4.605-1a49.459,49.459,0,0,1,14.547,4.924C513.623,239.988,514.871,241.184,514.826,242.494Z" fill="#7ca566"/><path d="M545.677,215.091c1.147.261,1.947,1.739,2.036,4.012a17.4,17.4,0,0,1-8.06,14.394c-1.986,1.111-3.663,1.2-4.485.36-.842-.859-.736-2.442-.152-4.322a44.307,44.307,0,0,1,6.9-12.315C543.21,215.739,544.505,214.823,545.677,215.091Z" fill="#7ca566"/><ellipse cx="6.943" cy="17.539" rx="6.943" ry="17.539" transform="matrix(0.958, -0.286, 0.286, 0.958, 509.935, 182.15)" fill="#7ca566"/><path d="M496.293,209.7c1.043-1.1,3.057-1.042,5.479-.33a48.064,48.064,0,0,1,15.71,9.124c1.82,1.751,2.87,3.47,2.429,4.923-.432,1.427-2.352,2.3-5.191,2.276a23.123,23.123,0,0,1-17.832-10.356C495.46,212.879,495.267,210.778,496.293,209.7Z" fill="#7ca566"/><path d="M529.6,228.474c.432.508.289,1.465-.5,2.526a9.2,9.2,0,0,1-9.048,3.065c-1.273-.363-1.968-1.035-1.934-1.7.034-.685.728-1.251,1.694-1.761a35.5,35.5,0,0,1,7.374-2.5C528.263,227.923,529.158,227.95,529.6,228.474Z" fill="#7ca566"/><path d="M490.911,218.288c1.167-.575,3.207,1.193,4.984,3.68s2.759,5.006,1.831,5.919c-.908.9-3.635-.378-5.642-3.213S489.76,218.848,490.911,218.288Z" fill="#7ca566"/><path d="M496.01,182.618c.991.855,1.022,2.582.562,4.675a48.6,48.6,0,0,1-6.331,14c-1.268,1.729-2.585,2.846-3.882,2.667-1.27-.174-2.278-1.7-2.591-4.161a18.93,18.93,0,0,1,7.406-16.379C493.228,182.03,495.04,181.779,496.01,182.618Z" fill="#7ca566"/><path d="M483.176,180.389c.5.489.459,1.407.163,2.5a29.022,29.022,0,0,1-3.553,7.283c-.68.906-1.378,1.5-2.072,1.41-.676-.089-1.22-.9-1.376-2.23a9.815,9.815,0,0,1,4.233-8.676C481.711,179.985,482.688,179.911,483.176,180.389Z" fill="#7ca566"/><path d="M515.31,171.578c-.288,1.142-1.634,1.857-3.374,2.435a90.489,90.489,0,0,1-12.739,2.58c-1.828.145-3.347.01-4.056-.93-.689-.906-.348-2.545,1.181-4.272a12.044,12.044,0,0,1,3.108-2.44,15.881,15.881,0,0,1,9.317-1.887,12.044,12.044,0,0,1,3.812,1.038C514.641,169.1,515.593,170.476,515.31,171.578Z" fill="#7ca566"/><path d="M541.705,188.235c-.873.334-1.953-.215-3.123-1.092a66.273,66.273,0,0,1-7.442-7.216c-.913-1.141-1.495-2.2-1.188-3.087.294-.856,1.524-1.354,3.336-1.116a11.977,11.977,0,0,1,9.429,9.142C543.011,186.67,542.551,187.915,541.705,188.235Z" fill="#7ca566"/><path d="M544.6,197.175c.6-.324,1.515.017,2.422.98a10.054,10.054,0,0,1,1.924,9.39c-.455,1.242-1.161,1.914-1.841,1.853-.7-.062-1.246-.8-1.7-1.847a26.181,26.181,0,0,1-1.641-8.01C543.774,198.4,543.99,197.506,544.6,197.175Z" fill="#7ca566"/><path d="M507.906,183.9c2.081.539,2.615,5.419.7,10.738s-5.43,8.743-7.378,7.833c-1.967-.916-1.755-5.528.019-10.481S505.806,183.352,507.906,183.9Z" fill="#7ca566"/><path d="M535.554,196.051c.95-.386,2.282.287,3.444,1.973a13.938,13.938,0,0,1-.187,14.751c-1.2,1.656-2.553,2.3-3.492,1.885-.97-.419-1.409-1.723-1.634-3.379a60.09,60.09,0,0,1,.15-11.893C534.1,197.738,534.575,196.445,535.554,196.051Z" fill="#7ca566"/><path d="M533.4,238.714c.515.751.252,1.954-.72,3.244a13.179,13.179,0,0,1-10.674,4.652c-1.608-.166-2.667-.793-2.867-1.681s.454-1.887,1.569-2.831a21.874,21.874,0,0,1,9.55-4.162C531.713,237.761,532.883,237.953,533.4,238.714Z" fill="#7ca566"/><g opacity="0.3"><path d="M531.987,235.229c.439,2.261-.341,4.7-2.61,6.994-2.253,2.291-6.025,4.3-11.063,5.315a35.364,35.364,0,0,1-8.355.6,41.761,41.761,0,0,1-9.572-1.634,45.232,45.232,0,0,1-30.786-31.43,41.736,41.736,0,0,1-1.435-9.6,35.373,35.373,0,0,1,.774-8.341c1.12-5.016,3.2-8.745,5.542-10.95,2.338-2.221,4.8-2.951,7.047-2.464,2.29.492,4.2,2.088,5.96,4.131a75.784,75.784,0,0,1,5.185,7.245,103,103,0,0,0,12.308,16.12,103.024,103.024,0,0,0,15.861,12.639,75.706,75.706,0,0,1,7.136,5.334C529.986,230.983,531.542,232.929,531.987,235.229Z" fill="#4d8c84"/></g><path d="M662.9,93.2a9.938,9.938,0,0,0-3.22-5.054,3.3,3.3,0,0,0-4.765.594,5.49,5.49,0,0,0-.149,4.631,4.993,4.993,0,0,0,.355.74,2.339,2.339,0,0,1-1.725,3.464,16.1,16.1,0,0,1-9.375-1.393,38.247,38.247,0,0,0-1.977-5.241,10.15,10.15,0,0,1,3.926-4.574,1.513,1.513,0,0,1,2.3.882c.034.124.071.246.112.366a4.275,4.275,0,0,0,1.441,2.241,1.956,1.956,0,0,0,2.833-.9,5.557,5.557,0,0,0,0-3.657,14.681,14.681,0,0,0-2.642-5.221,6.342,6.342,0,0,0-3.035-2.329,2.105,2.105,0,0,0-2.729,1.4,3.5,3.5,0,0,0,.922,2.81,3.185,3.185,0,0,0,.375.367,1.493,1.493,0,0,1-.279,2.454,10.252,10.252,0,0,1-5.979,1.207,38.638,38.638,0,0,0-4.681-5.808,14.4,14.4,0,0,1,2.94-7.445,2.121,2.121,0,0,1,3.449.06c.1.147.212.291.324.429a5.99,5.99,0,0,0,2.972,2.26,2.739,2.739,0,0,0,3.3-2.549,7.787,7.787,0,0,0-1.758-4.816,20.588,20.588,0,0,0-5.982-5.61,8.891,8.891,0,0,0-5.115-1.612,2.95,2.95,0,0,0-2.924,3.147,4.913,4.913,0,0,0,2.561,3.261,4.487,4.487,0,0,0,.669.3,2.092,2.092,0,0,1,.81,3.366,14.488,14.488,0,0,1-6.992,4.375,38.387,38.387,0,0,0-6.318-3.509,8.624,8.624,0,0,1,.068-5.073,1.284,1.284,0,0,1,1.974-.68c.09.062.181.122.274.177a3.625,3.625,0,0,0,2.158.67,1.657,1.657,0,0,0,1.348-2.133,4.712,4.712,0,0,0-2-2.375,12.462,12.462,0,0,0-4.565-1.953,5.377,5.377,0,0,0-3.243.142,1.786,1.786,0,0,0-1.012,2.4,2.973,2.973,0,0,0,2.132,1.324,2.558,2.558,0,0,0,.443.034,1.267,1.267,0,0,1,1.158,1.748,8.684,8.684,0,0,1-3.265,4.071,38.337,38.337,0,0,0-7.163-1.394,14.4,14.4,0,0,1-2.529-7.586A2.121,2.121,0,0,1,611,59.026c.174.045.349.086.524.12a5.988,5.988,0,0,0,3.729-.179,2.739,2.739,0,0,0,.887-4.072,7.776,7.776,0,0,0-4.442-2.559,20.586,20.586,0,0,0-8.189-.452,8.886,8.886,0,0,0-4.954,2.052,2.951,2.951,0,0,0-.217,4.291,4.908,4.908,0,0,0,4.058.851,4.387,4.387,0,0,0,.707-.2,2.093,2.093,0,0,1,2.784,2.059,14.487,14.487,0,0,1-2.543,7.844,38.3,38.3,0,0,0-8.186,1.711,9.823,9.823,0,0,1-1.135-1.981,1.284,1.284,0,0,1,1.075-1.79c.109-.01.217-.024.324-.041a3.624,3.624,0,0,0,2.084-.873,1.659,1.659,0,0,0-.338-2.5,4.7,4.7,0,0,0-3.057-.535,12.436,12.436,0,0,0-4.753,1.438,5.381,5.381,0,0,0-2.393,2.193,1.787,1.787,0,0,0,.765,2.486,2.972,2.972,0,0,0,2.485-.356,2.617,2.617,0,0,0,.361-.259,1.266,1.266,0,0,1,2.01.594,9.913,9.913,0,0,1,.447,2.39,38.451,38.451,0,0,0-8.518,4.663,11.688,11.688,0,0,1-5.027-3.237,1.7,1.7,0,0,1,.526-2.709c.13-.062.258-.127.383-.2a4.8,4.8,0,0,0,2.193-2.028,2.191,2.191,0,0,0-1.55-2.952,6.227,6.227,0,0,0-4.038.717,16.461,16.461,0,0,0-5.251,3.933,7.1,7.1,0,0,0-1.98,3.806A2.36,2.36,0,0,0,571.842,76a3.927,3.927,0,0,0,2.924-1.565,3.6,3.6,0,0,0,.332-.485,1.673,1.673,0,0,1,2.764-.17,11.751,11.751,0,0,1,2.438,5.684,38.7,38.7,0,0,0-5.7,6.994,11.014,11.014,0,0,1-2.964-1,1.473,1.473,0,0,1-.375-2.366c.088-.089.173-.18.254-.274a4.159,4.159,0,0,0,1.187-2.3,1.9,1.9,0,0,0-2.141-1.948,5.406,5.406,0,0,0-3.081,1.784,14.282,14.282,0,0,0-3.115,4.767,6.164,6.164,0,0,0-.485,3.691,2.047,2.047,0,0,0,2.5,1.62,3.407,3.407,0,0,0,1.921-2.144,3.134,3.134,0,0,0,.127-.494,1.453,1.453,0,0,1,2.2-.96,11.108,11.108,0,0,1,2.486,2.145A38.288,38.288,0,0,0,570,96.759a14.387,14.387,0,0,1-7.91,1.173,2.12,2.12,0,0,1-1.673-3.016c.076-.164.146-.33.21-.5a6,6,0,0,0,.471-3.7,2.739,2.739,0,0,0-3.856-1.582,7.781,7.781,0,0,0-3.291,3.931,20.588,20.588,0,0,0-1.868,7.986,8.887,8.887,0,0,0,1.161,5.235,2.951,2.951,0,0,0,4.188.959,4.909,4.909,0,0,0,1.543-3.848,4.435,4.435,0,0,0-.072-.731,2.092,2.092,0,0,1,2.51-2.385,14.486,14.486,0,0,1,7.293,3.876c-.074.975-.124,1.957-.124,2.951a38.75,38.75,0,0,0,.515,6.266,12.663,12.663,0,0,1-3.168,1.211,1.678,1.678,0,0,1-2.06-1.79c.012-.143.019-.284.022-.425a4.74,4.74,0,0,0-.652-2.88,2.166,2.166,0,0,0-3.294-.132,6.156,6.156,0,0,0-1.383,3.812,16.278,16.278,0,0,0,.772,6.441,7.033,7.033,0,0,0,2.28,3.577,2.334,2.334,0,0,0,3.372-.42,3.887,3.887,0,0,0,.106-3.278,3.528,3.528,0,0,0-.252-.524,1.656,1.656,0,0,1,1.221-2.452,12.681,12.681,0,0,1,3.693.045,38.289,38.289,0,0,0,2.638,7.27c-1.8,2.943-5.971,6.288-8.345,7.849a2.121,2.121,0,0,1-3.221-1.236q-.07-.261-.158-.514a5.991,5.991,0,0,0-2.019-3.14,2.74,2.74,0,0,0-3.971,1.268,7.783,7.783,0,0,0,.006,5.126,20.576,20.576,0,0,0,3.7,7.319,8.889,8.889,0,0,0,4.255,3.263,2.949,2.949,0,0,0,3.824-1.957,4.906,4.906,0,0,0-1.291-3.94,4.5,4.5,0,0,0-.526-.513,2.093,2.093,0,0,1,.391-3.441c2.663-1.385,7.974-3.407,11.506-3.366a38.784,38.784,0,0,0,4.441,4.865,11.646,11.646,0,0,1-1.679,3.13,1.568,1.568,0,0,1-2.549-.044q-.116-.163-.239-.318a4.432,4.432,0,0,0-2.2-1.67,2.024,2.024,0,0,0-2.437,1.884,5.751,5.751,0,0,0,1.3,3.559,15.218,15.218,0,0,0,4.421,4.147,6.566,6.566,0,0,0,3.78,1.191,2.18,2.18,0,0,0,2.161-2.326,3.629,3.629,0,0,0-1.892-2.41,3.492,3.492,0,0,0-.495-.224,1.546,1.546,0,0,1-.6-2.488,11.736,11.736,0,0,1,2.907-2.332,38.457,38.457,0,0,0,7.919,4.758,11.66,11.66,0,0,1-.292,5.939,1.691,1.691,0,0,1-2.6.9q-.178-.123-.36-.233a4.778,4.778,0,0,0-2.843-.883,2.184,2.184,0,0,0-1.775,2.809,6.2,6.2,0,0,0,2.63,3.128,16.412,16.412,0,0,0,6.012,2.572,7.085,7.085,0,0,0,4.271-.187,2.351,2.351,0,0,0,1.332-3.155,3.913,3.913,0,0,0-2.807-1.745,3.7,3.7,0,0,0-.584-.044,1.668,1.668,0,0,1-1.525-2.3,11.737,11.737,0,0,1,3.677-4.927,38.416,38.416,0,0,0,9.26,1.448,9.807,9.807,0,0,1,.393,2.262,1.284,1.284,0,0,1-1.623,1.314c-.106-.027-.212-.052-.318-.073a3.628,3.628,0,0,0-2.257.109,1.657,1.657,0,0,0-.537,2.465,4.713,4.713,0,0,0,2.689,1.549,12.444,12.444,0,0,0,4.957.274,5.379,5.379,0,0,0,3-1.243,1.786,1.786,0,0,0,.131-2.6,2.972,2.972,0,0,0-2.456-.516,2.7,2.7,0,0,0-.429.12,1.266,1.266,0,0,1-1.685-1.246,9.87,9.87,0,0,1,.4-2.409,38.6,38.6,0,0,0,7.688-.963,16.926,16.926,0,0,1,6.266,7.686,2.516,2.516,0,0,1-2.107,3.508c-.213.02-.425.046-.633.079a7.107,7.107,0,0,0-4.085,1.712,3.25,3.25,0,0,0,.663,4.9c1.572,1.1,3.842,1.245,5.991,1.05a24.4,24.4,0,0,0,9.312-2.818,10.538,10.538,0,0,0,4.689-4.3c.861-1.828.386-4.1-1.5-4.871a5.824,5.824,0,0,0-4.869.7,5.244,5.244,0,0,0-.709.508,2.482,2.482,0,0,1-3.938-1.165,17.038,17.038,0,0,1-.237-10.206,38.453,38.453,0,0,0,5.66-3.532,12.5,12.5,0,0,1,3.275,2.514,1.7,1.7,0,0,1-.526,2.709c-.131.061-.259.126-.383.2a4.792,4.792,0,0,0-2.194,2.027,2.192,2.192,0,0,0,1.551,2.952,6.228,6.228,0,0,0,4.038-.717,16.461,16.461,0,0,0,5.251-3.933,7.114,7.114,0,0,0,1.98-3.806,2.36,2.36,0,0,0-2.073-2.741,3.931,3.931,0,0,0-2.925,1.565,3.5,3.5,0,0,0-.331.485,1.675,1.675,0,0,1-2.765.171,12.561,12.561,0,0,1-2.024-3.815,38.7,38.7,0,0,0,5.282-5.968,14.391,14.391,0,0,1,7.843,1.6,2.12,2.12,0,0,1,.54,3.407q-.191.192-.366.394a5.993,5.993,0,0,0-1.71,3.319,2.74,2.74,0,0,0,3.083,2.8,7.783,7.783,0,0,0,4.437-2.569,20.573,20.573,0,0,0,4.487-6.865,8.891,8.891,0,0,0,.7-5.317,2.95,2.95,0,0,0-3.607-2.333,4.913,4.913,0,0,0-2.767,3.088,4.614,4.614,0,0,0-.182.712,2.092,2.092,0,0,1-3.174,1.382,14.48,14.48,0,0,1-5.522-6.125,38.189,38.189,0,0,0,2.5-7.458,11.643,11.643,0,0,1,3.545-.11,1.566,1.566,0,0,1,1.235,2.228c-.055.122-.107.244-.154.367a4.425,4.425,0,0,0-.349,2.736,2.025,2.025,0,0,0,2.85,1.168,5.753,5.753,0,0,0,2.431-2.9,15.226,15.226,0,0,0,1.38-5.9,6.572,6.572,0,0,0-.858-3.868,2.179,2.179,0,0,0-3.094-.708,3.627,3.627,0,0,0-1.14,2.843,3.278,3.278,0,0,0,.053.54,1.546,1.546,0,0,1-1.854,1.762,11.745,11.745,0,0,1-3.469-1.35,38.8,38.8,0,0,0,.367-5.259c0-.791-.031-1.574-.078-2.352a15.979,15.979,0,0,1,8.058-4.458,2.369,2.369,0,0,1,2.909,2.529c-.016.2-.027.4-.03.6a6.691,6.691,0,0,0,.92,4.069,3.062,3.062,0,0,0,4.654.187c1.275-1.279,1.783-3.361,1.954-5.386A22.993,22.993,0,0,0,662.9,93.2Z" fill="#adbf53"/><path d="M600.455,80.67c.226,1.323-.834,2.683-2.292,4.109-.741.705-1.585,1.467-2.509,2.233-.913.792-1.9,1.6-2.942,2.452-1.027.867-2,1.693-2.945,2.447-.922.769-1.824,1.46-2.652,2.06-1.668,1.175-3.2,1.97-4.458,1.507-1.213-.439-1.9-2.24-1.41-4.872a13.126,13.126,0,0,1,1.688-4.265,17.149,17.149,0,0,1,8.484-7.059,13.155,13.155,0,0,1,4.5-.885C598.6,78.392,600.244,79.4,600.455,80.67Z" fill="#7ca566"/><path d="M582.222,119.208c-.964.316-2.212-.422-3.285-2.069A14.922,14.922,0,0,1,578.6,102.9c.994-1.7,2.205-2.492,3.183-2.222,1,.275,1.609,1.5,1.994,3.15a31.433,31.433,0,0,1,.618,6.059,31.353,31.353,0,0,1-.332,6.083C583.758,117.634,583.208,118.886,582.222,119.208Z" fill="#7ca566"/><path d="M610.946,134.7c.117.923-.764,1.917-2.429,2.6a13.761,13.761,0,0,1-12.878-2.086c-1.365-1.173-1.887-2.4-1.484-3.234.41-.858,1.614-1.209,3.169-1.285a35.1,35.1,0,0,1,11.02,1.784C609.795,133.04,610.828,133.753,610.946,134.7Z" fill="#7ca566"/><ellipse cx="13.871" cy="5.491" rx="13.871" ry="5.491" transform="translate(603.483 115.788) rotate(-36.696)" fill="#7ca566"/><path d="M601.563,96.545c1.1.476,1.6,1.988,1.731,3.981a31.645,31.645,0,0,1-.584,7.193,31.641,31.641,0,0,1-1.934,6.953c-.807,1.826-1.8,3.073-3,3.139-1.178.066-2.348-1.123-3.1-3.239a18.287,18.287,0,0,1,2.858-16.056C598.972,96.789,600.481,96.077,601.563,96.545Z" fill="#7ca566"/><path d="M596.644,126.382c-.26.459-1.01.612-2.013.312a7.277,7.277,0,0,1-4.73-5.89c-.076-1.044.235-1.743.74-1.9s1.126.2,1.767.781a27.961,27.961,0,0,1,3.855,4.8C596.691,125.239,596.913,125.911,596.644,126.382Z" fill="#7ca566"/><path d="M593.72,94.877c.744.711-.016,2.706-1.382,4.7s-2.971,3.406-3.9,2.965-.705-2.8.857-5.063S592.992,94.173,593.72,94.877Z" fill="#7ca566"/><path d="M621.6,88.992c-.366.969-1.641,1.46-3.321,1.686a38.47,38.47,0,0,1-12.118-.907c-1.628-.473-2.816-1.149-3.034-2.161-.215-.991.646-2.154,2.389-3.053A14.967,14.967,0,0,1,619.7,85.618C621.285,86.766,621.963,88.044,621.6,88.992Z" fill="#7ca566"/><path d="M619.779,78.853c-.228.5-.921.723-1.814.8a22.962,22.962,0,0,1-6.374-.665c-.858-.259-1.491-.617-1.61-1.157s.342-1.152,1.284-1.627a7.762,7.762,0,0,1,7.593.792C619.682,77.655,620,78.361,619.779,78.853Z" fill="#7ca566"/><path d="M635.038,100.338c-.926.1-1.822-.711-2.723-1.848a46.118,46.118,0,0,1-2.844-4.285,46.383,46.383,0,0,1-2.527-4.479c-.6-1.318-.915-2.483-.41-3.265.486-.758,1.8-.949,3.495-.281a9.513,9.513,0,0,1,2.655,1.647,12.555,12.555,0,0,1,3.928,6.41,9.506,9.506,0,0,1,.263,3.114C636.7,99.168,635.934,100.248,635.038,100.338Z" fill="#7ca566"/><path d="M629.821,124.464c-.485-.558-.37-1.51-.036-2.616a52.746,52.746,0,0,1,3.343-7.487c.6-.987,1.233-1.708,1.972-1.719.715-.014,1.419.765,1.733,2.176A9.471,9.471,0,0,1,632.6,124.3C631.338,125.009,630.288,125,629.821,124.464Z" fill="#7ca566"/><path d="M623.965,129.042c.4.359.4,1.131-.071,2.065a7.946,7.946,0,0,1-6.454,3.976c-1.046,0-1.737-.343-1.876-.866s.256-1.141.911-1.762a20.735,20.735,0,0,1,5.506-3.392C622.83,128.757,623.553,128.675,623.965,129.042Z" fill="#7ca566"/><path d="M623.876,98.178c.164,1.692-3.317,3.412-7.788,3.429s-7.968-1.664-7.82-3.358,3.63-2.8,7.791-2.828S623.714,96.47,623.876,98.178Z" fill="#7ca566"/><path d="M622.347,122.013c.544.6.405,1.774-.532,3.094a11.028,11.028,0,0,1-11.01,3.861c-1.557-.445-2.4-1.274-2.348-2.083.049-.834.9-1.514,2.068-2.131a47.657,47.657,0,0,1,8.876-3.113C620.7,121.392,621.788,121.393,622.347,122.013Z" fill="#7ca566"/><path d="M590.068,131.985c-.419.586-1.383.717-2.606.344a10.414,10.414,0,0,1-6.35-6.668c-.312-1.239-.134-2.2.472-2.586s1.525-.175,2.528.4a17.313,17.313,0,0,1,5.682,5.966C590.317,130.47,590.492,131.391,590.068,131.985Z" fill="#7ca566"/><path d="M623.636,130.155c.347,1.788-.27,3.719-2.064,5.531a16.975,16.975,0,0,1-8.749,4.2,27.972,27.972,0,0,1-6.608.475,32.967,32.967,0,0,1-7.57-1.291A35.772,35.772,0,0,1,574.3,114.215a32.982,32.982,0,0,1-1.135-7.595,28,28,0,0,1,.612-6.6,16.985,16.985,0,0,1,4.383-8.66c1.849-1.757,3.793-2.333,5.573-1.949a9,9,0,0,1,4.714,3.268,59.837,59.837,0,0,1,4.1,5.73,81.4,81.4,0,0,0,9.735,12.748,81.461,81.461,0,0,0,12.543,10,60.015,60.015,0,0,1,5.644,4.218A9,9,0,0,1,623.636,130.155Z" fill="#4d8c84" opacity="0.3"/><path d="M472.063,73.767a6.2,6.2,0,0,0-3.589-1.077,2.061,2.061,0,0,0-2.013,2.226,3.428,3.428,0,0,0,1.82,2.254,3.084,3.084,0,0,0,.471.205,1.463,1.463,0,0,1,.6,2.345,10.068,10.068,0,0,1-5.008,3.169,23.77,23.77,0,0,0-3.076-1.673,6.351,6.351,0,0,1-.01-3.77.947.947,0,0,1,1.448-.521c.067.045.135.088.2.128a2.675,2.675,0,0,0,1.6.472,1.222,1.222,0,0,0,.972-1.585,3.47,3.47,0,0,0-1.5-1.73,9.177,9.177,0,0,0-3.383-1.393,3.975,3.975,0,0,0-2.389.137,1.317,1.317,0,0,0-.721,1.776,2.188,2.188,0,0,0,1.584.954,2.051,2.051,0,0,0,.327.021.933.933,0,0,1,.871,1.275,6.42,6.42,0,0,1-2.338,3.014,24.1,24.1,0,0,0-4.588-.838,9,9,0,0,1-1.65-4.726,1.327,1.327,0,0,1,1.658-1.38c.11.027.219.051.329.071a3.745,3.745,0,0,0,2.33-.144,1.713,1.713,0,0,0,.52-2.554,4.872,4.872,0,0,0-2.8-1.562,12.861,12.861,0,0,0-5.123-.213,5.558,5.558,0,0,0-3.08,1.326,1.845,1.845,0,0,0-.1,2.685,3.069,3.069,0,0,0,2.544.5,2.713,2.713,0,0,0,.441-.13,1.309,1.309,0,0,1,1.758,1.264,9.055,9.055,0,0,1-1.524,4.926,24.074,24.074,0,0,0-4.425.92,5.4,5.4,0,0,1-2.039-2.43.8.8,0,0,1,.657-1.128c.068-.008.135-.017.2-.028a2.272,2.272,0,0,0,1.3-.564,1.037,1.037,0,0,0-.232-1.561,2.951,2.951,0,0,0-1.916-.309,7.8,7.8,0,0,0-2.959.94,3.366,3.366,0,0,0-1.478,1.392,1.118,1.118,0,0,0,.5,1.548,1.861,1.861,0,0,0,1.55-.244,1.787,1.787,0,0,0,.224-.165.792.792,0,0,1,1.262.354,5.441,5.441,0,0,1,.117,3.262,23.874,23.874,0,0,0-3.961,2.265,8.992,8.992,0,0,1-4.3-2.559,1.327,1.327,0,0,1,.382-2.123c.1-.049.2-.1.3-.157a3.747,3.747,0,0,0,1.692-1.608,1.712,1.712,0,0,0-1.243-2.29,4.86,4.86,0,0,0-3.148.6,12.854,12.854,0,0,0-4.062,3.13,5.556,5.556,0,0,0-1.507,3,1.845,1.845,0,0,0,1.649,2.121,3.072,3.072,0,0,0,2.269-1.255,2.755,2.755,0,0,0,.254-.382,1.308,1.308,0,0,1,2.159-.163,9.062,9.062,0,0,1,2,4.753,23.979,23.979,0,0,0-3.177,4.154,6.174,6.174,0,0,1-1.347-.475.8.8,0,0,1-.222-1.287c.048-.049.093-.1.137-.151a2.267,2.267,0,0,0,.63-1.265,1.037,1.037,0,0,0-1.182-1.046,2.955,2.955,0,0,0-1.666,1A7.792,7.792,0,0,0,425.4,90.08a3.368,3.368,0,0,0-.238,2.016,1.118,1.118,0,0,0,1.378.865,1.861,1.861,0,0,0,1.031-1.183,1.628,1.628,0,0,0,.065-.271.792.792,0,0,1,1.2-.539,6.132,6.132,0,0,1,1.187.949,24,24,0,0,0-2.128,5.686,7.308,7.308,0,0,1-3.7.521,1.061,1.061,0,0,1-.857-1.5c.036-.082.07-.165.1-.249a3,3,0,0,0,.211-1.856,1.37,1.37,0,0,0-1.94-.764,3.889,3.889,0,0,0-1.619,1.988,10.292,10.292,0,0,0-.88,4.007,4.438,4.438,0,0,0,.617,2.611,1.475,1.475,0,0,0,2.1.451,2.453,2.453,0,0,0,.745-1.935,2.114,2.114,0,0,0-.041-.365,1.047,1.047,0,0,1,1.24-1.21A7.362,7.362,0,0,1,427.344,101a24.211,24.211,0,0,0,.156,5.641,6.877,6.877,0,0,1-1.813.736.92.92,0,0,1-1.143-.967c.005-.078.008-.156.008-.233a2.6,2.6,0,0,0-.379-1.576,1.189,1.189,0,0,0-1.809-.048,3.378,3.378,0,0,0-.73,2.1,8.919,8.919,0,0,0,.472,3.529,3.855,3.855,0,0,0,1.278,1.946,1.28,1.28,0,0,0,1.847-.256,2.131,2.131,0,0,0,.034-1.8,1.9,1.9,0,0,0-.142-.286.909.909,0,0,1,.652-1.355,6.993,6.993,0,0,1,2.053,0,23.907,23.907,0,0,0,1.7,4.961,9,9,0,0,1-3.266,3.787,1.326,1.326,0,0,1-2.024-.745c-.032-.109-.066-.216-.1-.32a3.739,3.739,0,0,0-1.289-1.946,1.713,1.713,0,0,0-2.472.826,4.869,4.869,0,0,0,.048,3.205,12.861,12.861,0,0,0,2.377,4.544,5.55,5.55,0,0,0,2.688,2,1.843,1.843,0,0,0,2.374-1.256,3.068,3.068,0,0,0-.841-2.452,2.725,2.725,0,0,0-.333-.317,1.308,1.308,0,0,1,.215-2.154,9.063,9.063,0,0,1,5.036-1.144c.363.492.74.978,1.146,1.448a24.2,24.2,0,0,0,2.8,2.756,7.906,7.906,0,0,1-1.005,1.868,1.049,1.049,0,0,1-1.706-.006c-.053-.072-.107-.143-.164-.21a2.957,2.957,0,0,0-1.484-1.1,1.355,1.355,0,0,0-1.614,1.283,3.853,3.853,0,0,0,.9,2.37,10.178,10.178,0,0,0,3,2.734,4.394,4.394,0,0,0,2.54.762,1.459,1.459,0,0,0,1.425-1.576,2.431,2.431,0,0,0-1.289-1.6,2.132,2.132,0,0,0-.333-.145,1.035,1.035,0,0,1-.423-1.66,7.975,7.975,0,0,1,1.766-1.487,23.936,23.936,0,0,0,4.219,2.365,19.671,19.671,0,0,1-.745,7.125,1.326,1.326,0,0,1-2.03.73c-.094-.063-.189-.123-.285-.179a3.749,3.749,0,0,0-2.238-.662,1.714,1.714,0,0,0-1.363,2.222,4.868,4.868,0,0,0,2.1,2.425,12.874,12.874,0,0,0,4.742,1.953,5.554,5.554,0,0,0,3.347-.193,1.844,1.844,0,0,0,1.012-2.488,3.068,3.068,0,0,0-2.221-1.338,2.747,2.747,0,0,0-.459-.029,1.308,1.308,0,0,1-1.22-1.788,18.741,18.741,0,0,1,4.073-6.293,24.271,24.271,0,0,0,4.09.489,7.28,7.28,0,0,1,.483,2.167.98.98,0,0,1-1.225,1.021c-.081-.02-.162-.038-.243-.052a2.765,2.765,0,0,0-1.722.106,1.265,1.265,0,0,0-.384,1.887,3.6,3.6,0,0,0,2.069,1.154,9.5,9.5,0,0,0,3.787.158,4.1,4.1,0,0,0,2.276-.98,1.363,1.363,0,0,0,.073-1.984,2.268,2.268,0,0,0-1.88-.368,2.071,2.071,0,0,0-.326.1.966.966,0,0,1-1.3-.934,7.3,7.3,0,0,1,.424-2.291,24.072,24.072,0,0,0,5.693-.982,7.292,7.292,0,0,1,2.287,2.932,1.058,1.058,0,0,1-.866,1.486c-.089.009-.178.021-.265.036a2.993,2.993,0,0,0-1.707.743A1.366,1.366,0,0,0,458,133.46a3.879,3.879,0,0,0,2.523.407,10.262,10.262,0,0,0,3.9-1.238,4.427,4.427,0,0,0,1.946-1.833,1.471,1.471,0,0,0-.658-2.038,2.449,2.449,0,0,0-2.042.321,2.261,2.261,0,0,0-.3.218,1.043,1.043,0,0,1-1.661-.467,7.336,7.336,0,0,1-.272-3.834,24.08,24.08,0,0,0,4.976-3.1,6.153,6.153,0,0,1,1.11.91.8.8,0,0,1-.232,1.286c-.061.03-.121.061-.18.1a2.265,2.265,0,0,0-1.024.973,1.036,1.036,0,0,0,.752,1.387,2.949,2.949,0,0,0,1.906-.365,7.784,7.784,0,0,0,2.459-1.895,3.364,3.364,0,0,0,.913-1.814,1.116,1.116,0,0,0-1-1.283,1.859,1.859,0,0,0-1.374.759,1.693,1.693,0,0,0-.153.232.792.792,0,0,1-1.307.1,6.156,6.156,0,0,1-.794-1.305,24.059,24.059,0,0,0,3.246-3.595,10.576,10.576,0,0,1,6.107,1.08,1.573,1.573,0,0,1,.435,2.521c-.093.1-.183.195-.268.3a4.448,4.448,0,0,0-1.235,2.479,2.032,2.032,0,0,0,2.316,2.049,5.772,5.772,0,0,0,3.265-1.949,15.278,15.278,0,0,0,3.258-5.138,6.591,6.591,0,0,0,.464-3.951,2.188,2.188,0,0,0-2.7-1.694,3.644,3.644,0,0,0-2.02,2.319,3.337,3.337,0,0,0-.128.53,1.553,1.553,0,0,1-2.341,1.057,10.653,10.653,0,0,1-4.28-4.735,24.181,24.181,0,0,0,1.237-3.984,7.794,7.794,0,0,1,2.577-.148,1.061,1.061,0,0,1,.858,1.5c-.037.083-.071.166-.1.25a3,3,0,0,0-.21,1.855,1.37,1.37,0,0,0,1.939.765,3.9,3.9,0,0,0,1.62-1.989,10.286,10.286,0,0,0,.879-4.007,4.444,4.444,0,0,0-.616-2.61,1.475,1.475,0,0,0-2.1-.451,2.453,2.453,0,0,0-.746,1.935,2.214,2.214,0,0,0,.041.365,1.046,1.046,0,0,1-1.239,1.21,7.852,7.852,0,0,1-2.516-.979,24.274,24.274,0,0,0,.063-4.984,9,9,0,0,1,4.368-2.444,1.326,1.326,0,0,1,1.647,1.392c-.008.113-.012.225-.013.336a3.752,3.752,0,0,0,.546,2.27,1.714,1.714,0,0,0,2.606.069,4.873,4.873,0,0,0,1.052-3.028,12.875,12.875,0,0,0-.68-5.083,5.558,5.558,0,0,0-1.841-2.8,1.845,1.845,0,0,0-2.661.368,3.073,3.073,0,0,0-.048,2.593,2.8,2.8,0,0,0,.2.411A1.308,1.308,0,0,1,479.541,97a9.063,9.063,0,0,1-5.117-.645,23.869,23.869,0,0,0-1.861-4.552,7.24,7.24,0,0,1,1.633-1.5.979.979,0,0,1,1.495.55c.023.08.048.159.076.237a2.765,2.765,0,0,0,.953,1.437,1.265,1.265,0,0,0,1.826-.61,3.594,3.594,0,0,0-.035-2.368,9.515,9.515,0,0,0-1.756-3.357,4.111,4.111,0,0,0-1.986-1.481,1.362,1.362,0,0,0-1.754.928,2.267,2.267,0,0,0,.621,1.812,2.035,2.035,0,0,0,.246.234.967.967,0,0,1-.159,1.592,7.335,7.335,0,0,1-2.193.777,24.362,24.362,0,0,0-1.974-2.64c-.323-.374-.658-.732-1-1.081a9.993,9.993,0,0,1,1.994-5.4,1.482,1.482,0,0,1,2.411.009c.074.1.151.2.23.3a4.188,4.188,0,0,0,2.1,1.551,1.914,1.914,0,0,0,2.28-1.812A5.439,5.439,0,0,0,476.3,77.63,14.375,14.375,0,0,0,472.063,73.767Z" fill="#adbf53"/><path d="M437.38,93.34c.647.534.7,1.611.593,2.882-.063.636-.151,1.342-.276,2.082-.109.747-.247,1.534-.391,2.362s-.256,1.619-.395,2.362c-.122.74-.268,1.436-.415,2.058-.31,1.238-.709,2.239-1.495,2.535-.753.287-1.815-.284-2.658-1.731a8.251,8.251,0,0,1-.942-2.709,10.717,10.717,0,0,1,1.134-6.808,8.216,8.216,0,0,1,1.77-2.257C435.57,93.02,436.76,92.823,437.38,93.34Z" fill="#7ca566"/><path d="M444.487,119.033c-.327.544-1.219.7-2.4.363a9.333,9.333,0,0,1-5.976-6.606c-.222-1.209.027-2.08.6-2.352s1.374.053,2.23.677a24.422,24.422,0,0,1,5.1,5.632C444.572,117.661,444.823,118.479,444.487,119.033Z" fill="#7ca566"/><path d="M464.413,114.635c.433.39.422,1.22-.087,2.224a8.606,8.606,0,0,1-6.95,4.272c-1.125,0-1.871-.363-2.023-.925s.27-1.232.976-1.9a21.91,21.91,0,0,1,5.946-3.656C463.192,114.321,463.972,114.237,464.413,114.635Z" fill="#7ca566"/><path d="M460.27,92.541c1.851.411,2.51,4.536,1.471,9.212s-3.381,8.133-5.232,7.722-2.51-4.535-1.472-9.211S458.418,92.13,460.27,92.541Z" fill="#7ca566"/><path d="M444.389,100.4c.716-.225,1.571.286,2.445,1.178a23.751,23.751,0,0,1,4.585,7.726c.364,1.194.4,2.19-.137,2.711s-1.57.427-2.79-.268a11.439,11.439,0,0,1-5.205-8.77C443.261,101.578,443.685,100.624,444.389,100.4Z" fill="#7ca566"/><path d="M454.246,116.54c.064.323-.228.7-.826.97a4.547,4.547,0,0,1-4.645-.857c-.462-.464-.6-.922-.425-1.2s.616-.365,1.156-.352a17.577,17.577,0,0,1,3.786.7C453.8,115.98,454.181,116.207,454.246,116.54Z" fill="#7ca566"/><path d="M439.994,102.817c.642.033,1.1,1.288,1.265,2.791s-.015,2.826-.636,3-1.478-1.039-1.662-2.747S439.362,102.782,439.994,102.817Z" fill="#7ca566"/><path d="M450.792,88.643c.222.608-.181,1.361-.884,2.154a24.052,24.052,0,0,1-6.108,4.521c-.964.44-1.8.606-2.319.215s-.574-1.283-.116-2.421a9.363,9.363,0,0,1,7.145-5.288C449.732,87.719,450.575,88.047,450.792,88.643Z" fill="#7ca566"/><path d="M445.787,84.587c.1.332-.141.719-.532,1.12A14.445,14.445,0,0,1,441.965,88c-.512.227-.957.316-1.234.109s-.309-.685-.057-1.3a4.854,4.854,0,0,1,3.919-2.726C445.252,84.06,445.692,84.263,445.787,84.587Z" fill="#7ca566"/><path d="M461.787,88.527c-.4.424-1.153.408-2.044.238a44.738,44.738,0,0,1-6.123-1.956c-.824-.378-1.447-.8-1.527-1.379-.079-.557.463-1.182,1.54-1.56a5.959,5.959,0,0,1,1.93-.305A7.866,7.866,0,0,1,460.041,85a5.965,5.965,0,0,1,1.4,1.367C462.1,87.295,462.175,88.119,461.787,88.527Z" fill="#7ca566"/><path d="M469.171,102.081c-.458-.066-.792-.564-1.086-1.224a32.977,32.977,0,0,1-1.475-4.91c-.119-.713-.114-1.312.231-1.619s.985-.217,1.71.322a5.923,5.923,0,0,1,1.869,6.22C470.112,101.72,469.613,102.147,469.171,102.081Z" fill="#7ca566"/><path d="M468.268,106.641c.338,0,.65.372.81,1.006a4.974,4.974,0,0,1-1.432,4.519c-.5.426-.963.546-1.242.356s-.345-.645-.288-1.207a12.936,12.936,0,0,1,1.221-3.854C467.614,106.969,467.923,106.635,468.268,106.641Z" fill="#7ca566"/><path d="M455.62,92.063c.769.735-.177,2.971-2.287,4.8s-4.452,2.467-5.074,1.6.574-2.809,2.534-4.521S454.845,91.321,455.62,92.063Z" fill="#7ca566"/><path d="M464.631,103.974c.5.062.916.674,1.011,1.681a6.891,6.891,0,0,1-3.635,6.325c-.919.425-1.656.376-1.963-.027s-.193-1.084.109-1.853a29.684,29.684,0,0,1,2.931-5.1C463.6,104.352,464.113,103.908,464.631,103.974Z" fill="#7ca566"/><path d="M453.42,121.878c.042.449-.361.9-1.092,1.228a6.52,6.52,0,0,1-5.731-.564c-.654-.459-.96-.985-.832-1.417s.65-.706,1.359-.844a10.806,10.806,0,0,1,5.127.5C452.92,121.059,453.379,121.424,453.42,121.878Z" fill="#7ca566"/><path d="M461.739,117.074a3.842,3.842,0,0,1-1.291,3.459,10.618,10.618,0,0,1-5.471,2.628,17.486,17.486,0,0,1-4.131.3,20.675,20.675,0,0,1-4.734-.808,22.369,22.369,0,0,1-15.224-15.543,20.614,20.614,0,0,1-.71-4.749,17.47,17.47,0,0,1,.383-4.125,10.614,10.614,0,0,1,2.741-5.415,3.84,3.84,0,0,1,3.484-1.219,5.63,5.63,0,0,1,2.948,2.044,37.666,37.666,0,0,1,2.564,3.582,50.97,50.97,0,0,0,6.086,7.972,50.921,50.921,0,0,0,7.844,6.25,37.455,37.455,0,0,1,3.529,2.638A5.625,5.625,0,0,1,461.739,117.074Z" fill="#4d8c84" opacity="0.3"/></g></svg>